<?xml version="1.0"?>
<!-- Generated by SVGo -->
<svg width="700" height="400"
     xmlns="http://www.w3.org/2000/svg"
     xmlns:xlink="http://www.w3.org/1999/xlink">
<title>Richter</title>
<rect x="0" y="0" width="700" height="400" style="fill:white" />
<rect x="57" y="20" width="32" height="18" style="fill:rgb(109,119,86)" />
<rect x="57" y="43" width="32" height="18" style="fill:rgb(1,95,30)" />
<rect x="57" y="66" width="32" height="18" style="fill:rgb(115,153,102)" />
<rect x="57" y="89" width="32" height="18" style="fill:rgb(174,207,107)" />
<rect x="57" y="112" width="32" height="18" style="fill:rgb(108,96,248)" />
<rect x="57" y="135" width="32" height="18" style="fill:rgb(51,1,66)" />
<rect x="57" y="158" width="32" height="18" style="fill:rgb(192,90,213)" />
<rect x="57" y="181" width="32" height="18" style="fill:rgb(181,241,72)" />
<rect x="57" y="204" width="32" height="18" style="fill:rgb(213,135,171)" />
<rect x="57" y="227" width="32" height="18" style="fill:rgb(156,164,116)" />
<rect x="57" y="250" width="32" height="18" style="fill:rgb(20,151,72)" />
<rect x="57" y="273" width="32" height="18" style="fill:rgb(217,12,129)" />
<rect x="57" y="296" width="32" height="18" style="fill:rgb(97,21,22)" />
<rect x="57" y="319" width="32" height="18" style="fill:rgb(15,121,209)" />
<rect x="57" y="342" width="32" height="18" style="fill:rgb(231,30,31)" />
<rect x="57" y="365" width="32" height="18" style="fill:rgb(167,86,123)" />
<rect x="94" y="20" width="32" height="18" style="fill:rgb(242,85,19)" />
<rect x="94" y="43" width="32" height="18" style="fill:rgb(84,6,92)" />
<rect x="94" y="66" width="32" height="18" style="fill:rgb(81,154,86)" />
<rect x="94" y="89" width="32" height="18" style="fill:rgb(23,226,153)" />
<rect x="94" y="112" width="32" height="18" style="fill:rgb(59,231,12)" />
<rect x="94" y="135" width="32" height="18" style="fill:rgb(219,232,36)" />
<rect x="94" y="158" width="32" height="18" style="fill:rgb(193,165,76)" />
<rect x="94" y="181" width="32" height="18" style="fill:rgb(121,246,248)" />
<rect x="94" y="204" width="32" height="18" style="fill:rgb(79,198,30)" />
<rect x="94" y="227" width="32" height="18" style="fill:rgb(232,192,124)" />
<rect x="94" y="250" width="32" height="18" style="fill:rgb(223,91,57)" />
<rect x="94" y="273" width="32" height="18" style="fill:rgb(168,111,58)" />
<rect x="94" y="296" width="32" height="18" style="fill:rgb(16,132,98)" />
<rect x="94" y="319" width="32" height="18" style="fill:rgb(252,143,196)" />
<rect x="94" y="342" width="32" height="18" style="fill:rgb(35,58,141)" />
<rect x="94" y="365" width="32" height="18" style="fill:rgb(147,36,63)" />
<rect x="131" y="20" width="32" height="18" style="fill:rgb(238,115,231)" />
<rect x="131" y="43" width="32" height="18" style="fill:rgb(169,84,66)" />
<rect x="131" y="66" width="32" height="18" style="fill:rgb(20,17,167)" />
<rect x="131" y="89" width="32" height="18" style="fill:rgb(216,209,42)" />
<rect x="131" y="112" width="32" height="18" style="fill:rgb(205,178,223)" />
<rect x="131" y="135" width="32" height="18" style="fill:rgb(216,105,193)" />
<rect x="131" y="158" width="32" height="18" style="fill:rgb(119,38,33)" />
<rect x="131" y="181" width="32" height="18" style="fill:rgb(26,146,185)" />
<rect x="131" y="204" width="32" height="18" style="fill:rgb(214,120,213)" />
<rect x="131" y="227" width="32" height="18" style="fill:rgb(234,83,127)" />
<rect x="131" y="250" width="32" height="18" style="fill:rgb(80,49,43)" />
<rect x="131" y="273" width="32" height="18" style="fill:rgb(111,247,172)" />
<rect x="131" y="296" width="32" height="18" style="fill:rgb(194,41,118)" />
<rect x="131" y="319" width="32" height="18" style="fill:rgb(52,151,81)" />
<rect x="131" y="342" width="32" height="18" style="fill:rgb(106,29,39)" />
<rect x="131" y="365" width="32" height="18" style="fill:rgb(4,84,22)" />
<rect x="168" y="20" width="32" height="18" style="fill:rgb(27,26,237)" />
<rect x="168" y="43" width="32" height="18" style="fill:rgb(158,159,157)" />
<rect x="168" y="66" width="32" height="18" style="fill:rgb(27,79,91)" />
<rect x="168" y="89" width="32" height="18" style="fill:rgb(183,132,7)" />
<rect x="168" y="112" width="32" height="18" style="fill:rgb(190,19,71)" />
<rect x="168" y="135" width="32" height="18" style="fill:rgb(50,222,125)" />
<rect x="168" y="158" width="32" height="18" style="fill:rgb(229,27,200)" />
<rect x="168" y="181" width="32" height="18" style="fill:rgb(96,154,117)" />
<rect x="168" y="204" width="32" height="18" style="fill:rgb(140,247,78)" />
<rect x="168" y="227" width="32" height="18" style="fill:rgb(231,242,13)" />
<rect x="168" y="250" width="32" height="18" style="fill:rgb(127,129,221)" />
<rect x="168" y="273" width="32" height="18" style="fill:rgb(78,229,129)" />
<rect x="168" y="296" width="32" height="18" style="fill:rgb(183,64,175)" />
<rect x="168" y="319" width="32" height="18" style="fill:rgb(158,197,246)" />
<rect x="168" y="342" width="32" height="18" style="fill:rgb(169,141,166)" />
<rect x="168" y="365" width="32" height="18" style="fill:rgb(228,231,167)" />
<rect x="205" y="20" width="32" height="18" style="fill:rgb(72,251,113)" />
<rect x="205" y="43" width="32" height="18" style="fill:rgb(2,196,106)" />
<rect x="205" y="66" width="32" height="18" style="fill:rgb(242,53,130)" />
<rect x="205" y="89" width="32" height="18" style="fill:rgb(142,0,191)" />
<rect x="205" y="112" width="32" height="18" style="fill:rgb(145,74,4)" />
<rect x="205" y="135" width="32" height="18" style="fill:rgb(22,158,51)" />
<rect x="205" y="158" width="32" height="18" style="fill:rgb(86,64,106)" />
<rect x="205" y="181" width="32" height="18" style="fill:rgb(207,212,126)" />
<rect x="205" y="204" width="32" height="18" style="fill:rgb(190,207,172)" />
<rect x="205" y="227" width="32" height="18" style="fill:rgb(155,135,129)" />
<rect x="205" y="250" width="32" height="18" style="fill:rgb(175,67,105)" />
<rect x="205" y="273" width="32" height="18" style="fill:rgb(33,210,11)" />
<rect x="205" y="296" width="32" height="18" style="fill:rgb(48,52,175)" />
<rect x="205" y="319" width="32" height="18" style="fill:rgb(96,247,251)" />
<rect x="205" y="342" width="32" height="18" style="fill:rgb(168,239,31)" />
<rect x="205" y="365" width="32" height="18" style="fill:rgb(66,236,144)" />
<rect x="242" y="20" width="32" height="18" style="fill:rgb(48,175,53)" />
<rect x="242" y="43" width="32" height="18" style="fill:rgb(11,111,68)" />
<rect x="242" y="66" width="32" height="18" style="fill:rgb(23,86,193)" />
<rect x="242" y="89" width="32" height="18" style="fill:rgb(79,142,110)" />
<rect x="242" y="112" width="32" height="18" style="fill:rgb(99,119,96)" />
<rect x="242" y="135" width="32" height="18" style="fill:rgb(247,142,138)" />
<rect x="242" y="158" width="32" height="18" style="fill:rgb(81,118,178)" />
<rect x="242" y="181" width="32" height="18" style="fill:rgb(157,109,41)" />
<rect x="242" y="204" width="32" height="18" style="fill:rgb(42,166,98)" />
<rect x="242" y="227" width="32" height="18" style="fill:rgb(143,196,37)" />
<rect x="242" y="250" width="32" height="18" style="fill:rgb(128,140,222)" />
<rect x="242" y="273" width="32" height="18" style="fill:rgb(160,171,95)" />
<rect x="242" y="296" width="32" height="18" style="fill:rgb(124,140,119)" />
<rect x="242" y="319" width="32" height="18" style="fill:rgb(69,93,67)" />
<rect x="242" y="342" width="32" height="18" style="fill:rgb(248,250,29)" />
<rect x="242" y="365" width="32" height="18" style="fill:rgb(148,2,134)" />
<rect x="279" y="20" width="32" height="18" style="fill:rgb(252,20,214)" />
<rect x="279" y="43" width="32" height="18" style="fill:rgb(90,142,104)" />
<rect x="279" y="66" width="32" height="18" style="fill:rgb(166,254,206)" />
<rect x="279" y="89" width="32" height="18" style="fill:rgb(118,105,171)" />
<rect x="279" y="112" width="32" height="18" style="fill:rgb(84,35,229)" />
<rect x="279" y="135" width="32" height="18" style="fill:rgb(68,175,205)" />
<rect x="279" y="158" width="32" height="18" style="fill:rgb(237,8,50)" />
<rect x="279" y="181" width="32" height="18" style="fill:rgb(197,94,226)" />
<rect x="279" y="204" width="32" height="18" style="fill:rgb(75,178,18)" />
<rect x="279" y="227" width="32" height="18" style="fill:rgb(64,210,200)" />
<rect x="279" y="250" width="32" height="18" style="fill:rgb(176,180,105)" />
<rect x="279" y="273" width="32" height="18" style="fill:rgb(29,110,7)" />
<rect x="279" y="296" width="32" height="18" style="fill:rgb(46,132,86)" />
<rect x="279" y="319" width="32" height="18" style="fill:rgb(180,27,126)" />
<rect x="279" y="342" width="32" height="18" style="fill:rgb(224,46,8)" />
<rect x="279" y="365" width="32" height="18" style="fill:rgb(73,210,40)" />
<rect x="316" y="20" width="32" height="18" style="fill:rgb(87,21,104)" />
<rect x="316" y="43" width="32" height="18" style="fill:rgb(97,211,250)" />
<rect x="316" y="66" width="32" height="18" style="fill:rgb(94,146,226)" />
<rect x="316" y="89" width="32" height="18" style="fill:rgb(37,211,166)" />
<rect x="316" y="112" width="32" height="18" style="fill:rgb(126,184,17)" />
<rect x="316" y="135" width="32" height="18" style="fill:rgb(69,65,192)" />
<rect x="316" y="158" width="32" height="18" style="fill:rgb(7,78,47)" />
<rect x="316" y="181" width="32" height="18" style="fill:rgb(85,176,174)" />
<rect x="316" y="204" width="32" height="18" style="fill:rgb(120,123,253)" />
<rect x="316" y="227" width="32" height="18" style="fill:rgb(20,75,10)" />
<rect x="316" y="250" width="32" height="18" style="fill:rgb(242,111,116)" />
<rect x="316" y="273" width="32" height="18" style="fill:rgb(58,48,32)" />
<rect x="316" y="296" width="32" height="18" style="fill:rgb(143,56,232)" />
<rect x="316" y="319" width="32" height="18" style="fill:rgb(115,48,128)" />
<rect x="316" y="342" width="32" height="18" style="fill:rgb(91,57,25)" />
<rect x="316" y="365" width="32" height="18" style="fill:rgb(236,110,112)" />
<rect x="353" y="20" width="32" height="18" style="fill:rgb(229,98,140)" />
<rect x="353" y="43" width="32" height="18" style="fill:rgb(179,191,205)" />
<rect x="353" y="66" width="32" height="18" style="fill:rgb(73,163,181)" />
<rect x="353" y="89" width="32" height="18" style="fill:rgb(225,201,91)" />
<rect x="353" y="112" width="32" height="18" style="fill:rgb(60,24,223)" />
<rect x="353" y="135" width="32" height="18" style="fill:rgb(85,48,247)" />
<rect x="353" y="158" width="32" height="18" style="fill:rgb(99,164,207)" />
<rect x="353" y="181" width="32" height="18" style="fill:rgb(132,10,176)" />
<rect x="353" y="204" width="32" height="18" style="fill:rgb(36,153,15)" />
<rect x="353" y="227" width="32" height="18" style="fill:rgb(20,118,163)" />
<rect x="353" y="250" width="32" height="18" style="fill:rgb(25,177,201)" />
<rect x="353" y="273" width="32" height="18" style="fill:rgb(152,90,252)" />
<rect x="353" y="296" width="32" height="18" style="fill:rgb(178,231,163)" />
<rect x="353" y="319" width="32" height="18" style="fill:rgb(12,244,27)" />
<rect x="353" y="342" width="32" height="18" style="fill:rgb(45,93,128)" />
<rect x="353" y="365" width="32" height="18" style="fill:rgb(107,163,129)" />
<rect x="390" y="20" width="32" height="18" style="fill:rgb(152,61,162)" />
<rect x="390" y="43" width="32" height="18" style="fill:rgb(202,241,190)" />
<rect x="390" y="66" width="32" height="18" style="fill:rgb(160,125,16)" />
<rect x="390" y="89" width="32" height="18" style="fill:rgb(30,117,65)" />
<rect x="390" y="112" width="32" height="18" style="fill:rgb(142,198,48)" />
<rect x="390" y="135" width="32" height="18" style="fill:rgb(219,87,148)" />
<rect x="390" y="158" width="32" height="18" style="fill:rgb(154,240,126)" />
<rect x="390" y="181" width="32" height="18" style="fill:rgb(145,1,84)" />
<rect x="390" y="204" width="32" height="18" style="fill:rgb(152,201,9)" />
<rect x="390" y="227" width="32" height="18" style="fill:rgb(228,67,153)" />
<rect x="390" y="250" width="32" height="18" style="fill:rgb(213,50,187)" />
<rect x="390" y="273" width="32" height="18" style="fill:rgb(111,160,203)" />
<rect x="390" y="296" width="32" height="18" style="fill:rgb(145,1,199)" />
<rect x="390" y="319" width="32" height="18" style="fill:rgb(58,220,199)" />
<rect x="390" y="342" width="32" height="18" style="fill:rgb(73,181,152)" />
<rect x="390" y="365" width="32" height="18" style="fill:rgb(175,174,130)" />
<rect x="427" y="20" width="32" height="18" style="fill:rgb(189,197,29)" />
<rect x="427" y="43" width="32" height="18" style="fill:rgb(195,232,1)" />
<rect x="427" y="66" width="32" height="18" style="fill:rgb(41,61,16)" />
<rect x="427" y="89" width="32" height="18" style="fill:rgb(175,149,96)" />
<rect x="427" y="112" width="32" height="18" style="fill:rgb(36,219,116)" />
<rect x="427" y="135" width="32" height="18" style="fill:rgb(114,54,213)" />
<rect x="427" y="158" width="32" height="18" style="fill:rgb(13,107,193)" />
<rect x="427" y="181" width="32" height="18" style="fill:rgb(3,149,89)" />
<rect x="427" y="204" width="32" height="18" style="fill:rgb(209,225,91)" />
<rect x="427" y="227" width="32" height="18" style="fill:rgb(150,48,196)" />
<rect x="427" y="250" width="32" height="18" style="fill:rgb(96,197,18)" />
<rect x="427" y="273" width="32" height="18" style="fill:rgb(247,226,165)" />
<rect x="427" y="296" width="32" height="18" style="fill:rgb(165,5,80)" />
<rect x="427" y="319" width="32" height="18" style="fill:rgb(238,96,73)" />
<rect x="427" y="342" width="32" height="18" style="fill:rgb(216,172,206)" />
<rect x="427" y="365" width="32" height="18" style="fill:rgb(30,46,162)" />
<rect x="464" y="20" width="32" height="18" style="fill:rgb(117,76,84)" />
<rect x="464" y="43" width="32" height="18" style="fill:rgb(156,121,187)" />
<rect x="464" y="66" width="32" height="18" style="fill:rgb(211,193,66)" />
<rect x="464" y="89" width="32" height="18" style="fill:rgb(118,220,118)" />
<rect x="464" y="112" width="32" height="18" style="fill:rgb(98,201,227)" />
<rect x="464" y="135" width="32" height="18" style="fill:rgb(96,14,76)" />
<rect x="464" y="158" width="32" height="18" style="fill:rgb(78,90,129)" />
<rect x="464" y="181" width="32" height="18" style="fill:rgb(254,184,61)" />
<rect x="464" y="204" width="32" height="18" style="fill:rgb(160,141,211)" />
<rect x="464" y="227" width="32" height="18" style="fill:rgb(39,46,22)" />
<rect x="464" y="250" width="32" height="18" style="fill:rgb(98,75,165)" />
<rect x="464" y="273" width="32" height="18" style="fill:rgb(240,142,91)" />
<rect x="464" y="296" width="32" height="18" style="fill:rgb(154,198,53)" />
<rect x="464" y="319" width="32" height="18" style="fill:rgb(97,138,247)" />
<rect x="464" y="342" width="32" height="18" style="fill:rgb(142,169,240)" />
<rect x="464" y="365" width="32" height="18" style="fill:rgb(33,92,164)" />
<rect x="501" y="20" width="32" height="18" style="fill:rgb(65,109,55)" />
<rect x="501" y="43" width="32" height="18" style="fill:rgb(29,130,114)" />
<rect x="501" y="66" width="32" height="18" style="fill:rgb(140,95,108)" />
<rect x="501" y="89" width="32" height="18" style="fill:rgb(27,144,69)" />
<rect x="501" y="112" width="32" height="18" style="fill:rgb(135,58,136)" />
<rect x="501" y="135" width="32" height="18" style="fill:rgb(162,75,216)" />
<rect x="501" y="158" width="32" height="18" style="fill:rgb(98,223,3)" />
<rect x="501" y="181" width="32" height="18" style="fill:rgb(134,17,80)" />
<rect x="501" y="204" width="32" height="18" style="fill:rgb(45,188,136)" />
<rect x="501" y="227" width="32" height="18" style="fill:rgb(88,24,182)" />
<rect x="501" y="250" width="32" height="18" style="fill:rgb(139,64,32)" />
<rect x="501" y="273" width="32" height="18" style="fill:rgb(173,22,72)" />
<rect x="501" y="296" width="32" height="18" style="fill:rgb(0,72,148)" />
<rect x="501" y="319" width="32" height="18" style="fill:rgb(197,192,51)" />
<rect x="501" y="342" width="32" height="18" style="fill:rgb(17,192,134)" />
<rect x="501" y="365" width="32" height="18" style="fill:rgb(246,108,19)" />
<rect x="538" y="20" width="32" height="18" style="fill:rgb(8,3,154)" />
<rect x="538" y="43" width="32" height="18" style="fill:rgb(221,5,161)" />
<rect x="538" y="66" width="32" height="18" style="fill:rgb(158,135,54)" />
<rect x="538" y="89" width="32" height="18" style="fill:rgb(163,151,35)" />
<rect x="538" y="112" width="32" height="18" style="fill:rgb(136,223,162)" />
<rect x="538" y="135" width="32" height="18" style="fill:rgb(59,200,1)" />
<rect x="538" y="158" width="32" height="18" style="fill:rgb(187,146,53)" />
<rect x="538" y="181" width="32" height="18" style="fill:rgb(165,199,225)" />
<rect x="538" y="204" width="32" height="18" style="fill:rgb(196,25,31)" />
<rect x="538" y="227" width="32" height="18" style="fill:rgb(249,96,238)" />
<rect x="538" y="250" width="32" height="18" style="fill:rgb(104,224,197)" />
<rect x="538" y="273" width="32" height="18" style="fill:rgb(249,55,146)" />
<rect x="538" y="296" width="32" height="18" style="fill:rgb(144,144,104)" />
<rect x="538" y="319" width="32" height="18" style="fill:rgb(159,59,24)" />
<rect x="538" y="342" width="32" height="18" style="fill:rgb(251,6,195)" />
<rect x="538" y="365" width="32" height="18" style="fill:rgb(73,116,73)" />
<rect x="575" y="20" width="32" height="18" style="fill:rgb(122,113,29)" />
<rect x="575" y="43" width="32" height="18" style="fill:rgb(48,31,70)" />
<rect x="575" y="66" width="32" height="18" style="fill:rgb(253,90,120)" />
<rect x="575" y="89" width="32" height="18" style="fill:rgb(194,2,79)" />
<rect x="575" y="112" width="32" height="18" style="fill:rgb(144,213,127)" />
<rect x="575" y="135" width="32" height="18" style="fill:rgb(82,90,184)" />
<rect x="575" y="158" width="32" height="18" style="fill:rgb(83,233,2)" />
<rect x="575" y="181" width="32" height="18" style="fill:rgb(21,229,179)" />
<rect x="575" y="204" width="32" height="18" style="fill:rgb(208,24,212)" />
<rect x="575" y="227" width="32" height="18" style="fill:rgb(59,112,165)" />
<rect x="575" y="250" width="32" height="18" style="fill:rgb(43,147,245)" />
<rect x="575" y="273" width="32" height="18" style="fill:rgb(1,231,119)" />
<rect x="575" y="296" width="32" height="18" style="fill:rgb(141,7,80)" />
<rect x="575" y="319" width="32" height="18" style="fill:rgb(199,87,97)" />
<rect x="575" y="342" width="32" height="18" style="fill:rgb(199,67,243)" />
<rect x="575" y="365" width="32" height="18" style="fill:rgb(111,160,26)" />
<rect x="612" y="20" width="32" height="18" style="fill:rgb(29,207,59)" />
<rect x="612" y="43" width="32" height="18" style="fill:rgb(187,12,17)" />
<rect x="612" y="66" width="32" height="18" style="fill:rgb(203,215,205)" />
<rect x="612" y="89" width="32" height="18" style="fill:rgb(110,52,93)" />
<rect x="612" y="112" width="32" height="18" style="fill:rgb(101,147,74)" />
<rect x="612" y="135" width="32" height="18" style="fill:rgb(129,162,179)" />
<rect x="612" y="158" width="32" height="18" style="fill:rgb(155,100,117)" />
<rect x="612" y="181" width="32" height="18" style="fill:rgb(9,181,95)" />
<rect x="612" y="204" width="32" height="18" style="fill:rgb(140,199,101)" />
<rect x="612" y="227" width="32" height="18" style="fill:rgb(239,185,236)" />
<rect x="612" y="250" width="32" height="18" style="fill:rgb(198,74,157)" />
<rect x="612" y="273" width="32" height="18" style="fill:rgb(43,101,188)" />
<rect x="612" y="296" width="32" height="18" style="fill:rgb(224,131,207)" />
<rect x="612" y="319" width="32" height="18" style="fill:rgb(4,245,20)" />
<rect x="612" y="342" width="32" height="18" style="fill:rgb(182,212,116)" />
<rect x="612" y="365" width="32" height="18" style="fill:rgb(108,142,83)" />
</svg>
