<?xml version="1.0"?>
<!-- Generated by SVGo -->
<svg width="1600" height="900"
     xmlns="http://www.w3.org/2000/svg"
     xmlns:xlink="http://www.w3.org/1999/xlink">
<rect x="0" y="0" width="1600" height="900" style="fill:rgb(255,255,255)" />
<g style="font-family:Calibri,sans-serif;font-size:14px">
<text x="150" y="60" style="font-size:300%" >Apple Products and Stock Price</text>
<g style="stroke:lightgray;stroke-width:1px">
<line x1="18" y1="120" x2="1682" y2="120" />
<text x="-42" y="120" style="fill:black;stroke:none" >400</text>
<line x1="18" y1="208" x2="1682" y2="208" />
<text x="-42" y="208" style="fill:black;stroke:none" >350</text>
<line x1="18" y1="295" x2="1682" y2="295" />
<text x="-42" y="295" style="fill:black;stroke:none" >300</text>
<line x1="18" y1="383" x2="1682" y2="383" />
<text x="-42" y="383" style="fill:black;stroke:none" >250</text>
<line x1="18" y1="470" x2="1682" y2="470" />
<text x="-42" y="470" style="fill:black;stroke:none" >200</text>
<line x1="18" y1="558" x2="1682" y2="558" />
<text x="-42" y="558" style="fill:black;stroke:none" >150</text>
<line x1="18" y1="645" x2="1682" y2="645" />
<text x="-42" y="645" style="fill:black;stroke:none" >100</text>
<line x1="18" y1="733" x2="1682" y2="733" />
<text x="-42" y="733" style="fill:black;stroke:none" >50</text>
<line x1="18" y1="820" x2="1682" y2="820" />
<text x="-42" y="820" style="fill:black;stroke:none" >0</text>
</g>
<g style="stroke-opacity:0.50;stroke:lightgray;stroke-width:265;text-anchor:middle">
<line x1="150" y1="820" x2="150" y2="808" />
<image x="18" y="674" width="265" height="120" xlink:href="images/jaguar.jpeg" />
<g style="stroke:none;fill:black">
<text x="150" y="860" >Jaguar</text>
<text x="150" y="822" style="font-size:150%;font-weight:bold" >7.38</text>
<text x="150" y="840" >2002-08</text>
</g>
<line x1="430" y1="820" x2="430" y2="800" />
<image x="298" y="666" width="265" height="120" xlink:href="images/panther.jpeg" />
<g style="stroke:none;fill:black">
<text x="430" y="860" >Panther</text>
<text x="430" y="814" style="font-size:150%;font-weight:bold" >11.44</text>
<text x="430" y="840" >2003-10</text>
</g>
<line x1="710" y1="820" x2="710" y2="748" />
<image x="578" y="614" width="265" height="120" xlink:href="images/tiger.jpeg" />
<g style="stroke:none;fill:black">
<text x="710" y="860" >Tiger</text>
<text x="710" y="762" style="font-size:150%;font-weight:bold" >41.67</text>
<text x="710" y="840" >2005-03</text>
</g>
<line x1="990" y1="820" x2="990" y2="518" />
<image x="858" y="384" width="265" height="120" xlink:href="images/leopard.jpeg" />
<g style="stroke:none;fill:black">
<text x="990" y="860" >Leopard</text>
<text x="990" y="532" style="font-size:150%;font-weight:bold" >172.75</text>
<text x="990" y="840" >2007-10</text>
</g>
<line x1="1270" y1="820" x2="1270" y2="523" />
<image x="1138" y="389" width="265" height="120" xlink:href="images/snowleopard.jpeg" />
<g style="stroke:none;fill:black">
<text x="1270" y="860" >Snow Leopard</text>
<text x="1270" y="537" style="font-size:150%;font-weight:bold" >170.05</text>
<text x="1270" y="840" >2009-08</text>
</g>
<line x1="1550" y1="820" x2="1550" y2="121" />
<image x="1418" y="-13" width="265" height="120" xlink:href="images/lion.jpeg" />
<g style="stroke:none;fill:black">
<text x="1550" y="860" >Lion</text>
<text x="1550" y="135" style="font-size:150%;font-weight:bold" >399.68</text>
<text x="1550" y="840" >2011-07</text>
</g>
</g>
</g>
</svg>
