<?xml version="1.0"?>
<!-- Generated by SVGo -->
<svg width="1024" height="768"
     xmlns="http://www.w3.org/2000/svg"
     xmlns:xlink="http://www.w3.org/1999/xlink">
<title>comp grid</title>
<rect x="0" y="0" width="1024" height="768" style="fill:white" />
<g style="font-family:Calibri,sans-serif;font-size:16px;fill:black;text-anchor:middle;stroke-linecap:round;stroke-width:4px;stroke-opacity:1.0">
<rect x="50" y="50" width="200" height="120" style="stroke:black;stroke-width:1;fill:black" />
<text x="150" y="110" style="font-size:20px;fill:white;baseline-shift:-25%" >Plain</text>
<rect x="300" y="50" width="200" height="40" style="stroke:black;stroke-width:1;fill:black" />
<rect x="300" y="90" width="200" height="80" style="fill:white;stroke-width:1;stroke:gray" />
<g style="font-size:20px">
<text x="400" y="90" style="fill:white;baseline-shift:50%" >Widget</text>
<text x="400" y="100" style="font-size:60%" >Widget/OS</text>
<text x="400" y="160" style="fill-opacity:0.75;font-size:75%" >Here</text>
<text x="400" y="138" style="fill-opacity:0.75;font-size:75%" >Dignus</text>
</g>
<polygon points="570,50 610,50 630,60 750,60 750,170 570,170" style="fill:rgb(190,190,190)" />
<polygon points="750,170 730,80 550,80 570,170" style="fill:black" />
<g style="font-size:20px;fill:white">
<text x="650" y="110" >Folder</text>
<text x="650" y="132" style="font-size:60%" >Stuff</text>
<text x="650" y="150" style="font-size:75%" >Nonsense</text>
</g>
<rect x="50" y="220" width="200" height="120" rx="10" ry="10" style="fill:black" />
<rect x="60" y="230" width="180" height="100" style="fill:white" />
<g style="font-size:20px">
<text x="150" y="260" >Tablet</text>
<text x="150" y="282" style="font-size:60%" >Widget/OS</text>
<text x="150" y="300" style="font-size:75%" >Dignus Here</text>
</g>
<rect x="300" y="220" width="200" height="102" rx="6" ry="6" style="fill:black" />
<rect x="306" y="226" width="188" height="90" style="fill:white" />
<polygon points="312,328 300,340 506,340 494,328" style="fill:black" />
<g style="font-size:20px">
<text x="400" y="260" >Desktop</text>
<text x="400" y="282" style="font-size:60%" >Computer</text>
<text x="400" y="300" style="font-size:75%" >Workstation</text>
</g>
<rect x="550" y="250" width="200" height="60" style="fill:rgb(190,190,190)" />
<ellipse cx="650" cy="310" rx="100" ry="30" style="fill:rgb(190,190,190)" />
<ellipse cx="650" cy="250" rx="100" ry="30" style="fill:black" />
<text x="650" y="260" style="font-size:20px;fill:white" >Data</text>
<text x="650" y="300" style="font-size:75%" >database</text>
<polygon points="70,390 230,390 240,400 60,400" style="fill:rgb(190,190,190)" />
<rect x="50" y="400" width="200" height="110" rx="5" ry="5" style="fill:black" />
<g style="stroke:rgb(190,190,190)">
<line x1="60" y1="425" x2="100" y2="425" />
<line x1="110" y1="425" x2="150" y2="425" />
<line x1="60" y1="455" x2="100" y2="455" />
<line x1="110" y1="455" x2="150" y2="455" />
</g>
<circle cx="240" cy="450" r="5" style="fill:rgb(190,190,190)" />
<text x="150" y="500" style="font-size:20px;fill:white" >Server</text>
<g style="fill:black">
<circle cx="416" cy="450" r="66" />
<circle cx="482" cy="483" r="33" />
<circle cx="317" cy="483" r="33" />
<circle cx="350" cy="450" r="39" />
<rect x="317" y="450" width="165" height="66" />
</g>
<text x="400" y="483" style="font-size:20px;fill:white" >Cloud</text>
<polygon points="550,430 650,390 750,430 650,470 550,430" style="fill:rgb(190,190,190)" />
<polygon points="550,430 550,510 750,510 750,430 650,470 550,430" style="fill:black" />
<rect x="575" y="405" width="150" height="105" rx="6" ry="6" style="fill:black" />
<line x1="550" y1="430" x2="650" y2="470" style="stroke-width:1;stroke:rgb(190,190,190)" />
<line x1="750" y1="430" x2="650" y2="470" style="stroke-width:1;stroke:rgb(190,190,190)" />
<g style="font-size:20px;fill:white">
<text x="650" y="425" style="font-size:75%" >message</text>
<text x="650" y="500" style="font-size:20px;fill:white" >Envelope</text>
</g>
<circle cx="150" cy="620" r="40" style="fill:white;stroke-width:4px;stroke:black" />
<circle cx="162" cy="608" r="4" style="fill:black" />
<circle cx="138" cy="608" r="4" style="fill:black" />
<path d="M162,632 Q150,644 138,632" style="fill:black;stroke-width:4px;stroke:black" />
<text x="150" y="675" style="font-size:20px;fill:black" >Face</text>
<g style="fill:black">
<polygon points="300,680 300,656 366,632 400,644 433,632 500,656 500,680" />
<ellipse cx="400" cy="600" rx="40" ry="40" />
</g>
<text x="400" y="675" style="font-size:20px;fill:white" >A Role</text>
</g>
</svg>
