<?xml version="1.0"?>
<!-- Generated by SVGo -->
<svg width="1024" height="768"
     xmlns="http://www.w3.org/2000/svg"
     xmlns:xlink="http://www.w3.org/1999/xlink">
<title>comp grid</title>
<rect x="0" y="0" width="1024" height="768" style="fill:white" />
<g style="font-family:Calibri,sans-serif;font-size:16px;fill:black;text-anchor:middle;stroke-linecap:round;stroke-width:4px;stroke-opacity:1.0">
<rect x="10" y="10" width="880" height="700" style="fill-opacity:1.00;fill:lightgray" />
<rect x="10" y="290" width="1100" height="140" style="fill-opacity:1.00;fill:lightsteelblue" />
<rect x="670" y="10" width="220" height="700" style="fill-opacity:1.00;fill:gray" />
<g style="text-anchor:start;fill:black;font-size:16px">
<rect x="20" y="440" width="16" height="16" style="fill:rgb(0,0,0)" />
<text x="52" y="448" style="baseline-shift:-30%" >Component</text>
<rect x="20" y="460" width="16" height="16" style="fill:rgb(127,127,127)" />
<text x="52" y="468" style="baseline-shift:-30%" >Another Thing</text>
</g>
<g style="text-anchor:start;fill:black;font-size:16px">
<rect x="240" y="584" width="16" height="4" style="fill:rgb(0,127,0)" />
<text x="272" y="588" style="baseline-shift:-30%" >Public</text>
<rect x="240" y="604" width="16" height="4" style="fill:rgb(127,127,127)" />
<text x="272" y="608" style="baseline-shift:-30%" >Confidential</text>
<rect x="240" y="624" width="16" height="4" style="fill:rgb(0,0,127)" />
<text x="272" y="628" style="baseline-shift:-30%" >Restricted</text>
<rect x="240" y="644" width="16" height="4" style="fill:rgb(127,0,0)" />
<text x="272" y="648" style="baseline-shift:-30%" >Highly Restricted</text>
</g>
<g style="font-size:16px">
<text x="1000" y="80" style="text-anchor:middle;fill:red" >Note</text>
<text x="900" y="98" style="text-anchor:start;fill:black" >This is the test pattern for compx</text>
<text x="900" y="116" style="text-anchor:start;fill:black" >for best results, set the width to be</text>
<text x="900" y="134" style="text-anchor:start;fill:black" >at least 1300</text>
<text x="900" y="152" style="text-anchor:start;fill:black" ></text>
<text x="1100" y="170" style="text-anchor:end;fill:red" >the management</text>
</g>
<g style="font-size:30px">
<text x="20" y="720" style="text-anchor:start;fill:black" >Here is another Note</text>
<text x="20" y="752" style="text-anchor:start;fill:blue" >This one is bigger</text>
</g>
<g style="font-size:16px">
<text x="20" y="20" style="text-anchor:start;fill:black" >a stupid note</text>
<text x="20" y="38" style="text-anchor:start;fill:black" >you did not specify anything</text>
</g>
<rect x="900" y="440" width="200" height="120" rx="10" ry="10" style="fill:black" />
<rect x="910" y="450" width="180" height="100" style="fill:white" />
<g style="font-size:20px">
<text x="1000" y="480" >Tablet</text>
<text x="1000" y="502" style="font-size:60%" >Widget/OS</text>
<text x="1000" y="520" style="font-size:75%" >Dignus Here</text>
</g>
<circle cx="780" cy="80" r="40" style="fill:white;stroke-width:4px;stroke:black" />
<circle cx="792" cy="68" r="4" style="fill:black" />
<circle cx="768" cy="68" r="4" style="fill:black" />
<path d="M792,92 Q780,104 768,92" style="fill:black;stroke-width:4px;stroke:black" />
<text x="780" y="135" style="font-size:20px;fill:black" >Face it</text>
<g style="fill:steelblue">
<polygon points="680,700 680,676 746,652 780,664 813,652 880,676 880,700" />
<ellipse cx="780" cy="620" rx="40" ry="40" />
</g>
<text x="780" y="695" style="font-size:20px;fill:white" >A Role</text>
<polygon points="460,340 560,300 660,340 560,380 460,340" style="fill:rgb(190,190,190)" />
<polygon points="460,340 460,420 660,420 660,340 560,380 460,340" style="fill:maroon" />
<rect x="485" y="315" width="150" height="105" rx="6" ry="6" style="fill:maroon" />
<line x1="460" y1="340" x2="560" y2="380" style="stroke-width:1;stroke:rgb(190,190,190)" />
<line x1="660" y1="340" x2="560" y2="380" style="stroke-width:1;stroke:rgb(190,190,190)" />
<g style="font-size:20px;fill:white">
<text x="560" y="335" style="font-size:75%" >message</text>
<text x="560" y="410" style="font-size:20px;fill:white" >Envelope</text>
</g>
<rect x="900" y="580" width="200" height="40" style="stroke:black;stroke-width:1;fill:black" />
<rect x="900" y="620" width="200" height="80" style="fill:white;stroke-width:1;stroke:gray" />
<g style="font-size:20px">
<text x="1000" y="620" style="fill:white;baseline-shift:50%" >Widget</text>
<text x="1000" y="630" style="font-size:60%" >Widget/OS</text>
<text x="1000" y="690" style="fill-opacity:0.75;font-size:75%" >Here</text>
<text x="1000" y="668" style="fill-opacity:0.75;font-size:75%" >Dignus</text>
</g>
<g style="fill:gray">
<circle cx="136" cy="640" r="66" />
<circle cx="202" cy="673" r="33" />
<circle cx="37" cy="673" r="33" />
<circle cx="70" cy="640" r="39" />
<rect x="37" y="640" width="165" height="66" />
</g>
<text x="120" y="673" style="font-size:20px;fill:white" >Internet</text>
<polygon points="120,300 112,288 120,288 128,288" style="fill:rgb(190,190,190);fill-opacity:1.0" />
<line x1="120" y1="160" x2="120" y2="288" style="stroke:rgb(190,190,190);fill:none" />
<text x="114" y="224" style="text-anchor:end;" ></text>
<rect x="20" y="100" width="200" height="60" style="stroke:black;stroke-width:1;fill:black" />
<text x="120" y="130" style="font-size:20px;fill:white;baseline-shift:-25%" >Nameless</text>
<polygon points="510,300 502,288 510,288 518,288" style="fill:rgb(127,0,0);fill-opacity:1.0" />
<line x1="510" y1="140" x2="510" y2="288" style="stroke:rgb(127,0,0);fill:none" />
<text x="504" y="214" style="text-anchor:end;" >[1]</text>
<polygon points="560,300 552,288 560,288 568,288" style="fill:rgb(127,0,0);fill-opacity:1.0" />
<line x1="560" y1="140" x2="560" y2="288" style="stroke:rgb(127,0,0);fill:none" />
<text x="554" y="214" style="text-anchor:end;" >[2]</text>
<polygon points="610,300 602,288 610,288 618,288" style="fill:rgb(127,0,0);fill-opacity:1.0" />
<line x1="610" y1="140" x2="610" y2="288" style="stroke:rgb(127,0,0);fill:none" />
<text x="604" y="214" style="text-anchor:end;" >[3]</text>
<polygon points="1000,300 992,288 1000,288 1008,288" style="fill:rgb(190,190,190);fill-opacity:1.0" />
<line x1="660" y1="80" x2="1000" y2="288" style="stroke:rgb(190,190,190);fill:none" />
<text x="836" y="184" style="text-anchor:start;" >North to East</text>
<rect x="460" y="50" width="200" height="60" style="fill:rgb(190,190,190)" />
<ellipse cx="560" cy="110" rx="100" ry="30" style="fill:rgb(190,190,190)" />
<ellipse cx="560" cy="50" rx="100" ry="30" style="fill:black" />
<text x="560" y="60" style="font-size:20px;fill:white" >North</text>
<text x="560" y="100" style="font-size:75%" >N</text>
<polygon points="460,300 444,294 444,300 444,306" style="fill:rgb(0,0,127);fill-opacity:1.0" />
<line x1="220" y1="300" x2="444" y2="300" style="stroke:rgb(0,0,127);fill:none" />
<text x="332" y="294" style="text-anchor:middle;baseline-shift:20%;" >[4]</text>
<polygon points="460,330 444,324 444,330 444,336" style="fill:rgb(0,0,127);fill-opacity:1.0" />
<line x1="220" y1="330" x2="444" y2="330" style="stroke:rgb(0,0,127);fill:none" />
<text x="332" y="324" style="text-anchor:middle;baseline-shift:20%;" >[5]</text>
<polygon points="460,360 444,354 444,360 444,366" style="fill:rgb(0,0,127);fill-opacity:1.0" />
<line x1="220" y1="360" x2="444" y2="360" style="stroke:rgb(0,0,127);fill:none" />
<text x="332" y="354" style="text-anchor:middle;baseline-shift:20%;" >[6]</text>
<polygon points="460,390 444,384 444,390 444,396" style="fill:rgb(0,0,127);fill-opacity:1.0" />
<line x1="220" y1="390" x2="444" y2="390" style="stroke:rgb(0,0,127);fill:none" />
<text x="332" y="384" style="text-anchor:middle;baseline-shift:20%;" >[7]</text>
<polygon points="460,420 444,414 444,420 444,426" style="fill:rgb(0,0,127);fill-opacity:1.0" />
<line x1="220" y1="420" x2="444" y2="420" style="stroke:rgb(0,0,127);fill:none" />
<text x="332" y="414" style="text-anchor:middle;baseline-shift:20%;" >[8]</text>
<polygon points="460,80 444,74 444,80 444,86" style="fill:rgb(190,190,190);fill-opacity:1.0" />
<line x1="120" y1="300" x2="444" y2="80" style="stroke:rgb(190,190,190);fill:none" />
<text x="276" y="190" style="text-anchor:end;" >West to North</text>
<polygon points="40,300 200,300 210,310 30,310" style="fill:rgb(190,190,190)" />
<rect x="20" y="310" width="200" height="110" rx="5" ry="5" style="fill:black" />
<g style="stroke:rgb(190,190,190)">
<line x1="30" y1="335" x2="70" y2="335" />
<line x1="80" y1="335" x2="120" y2="335" />
<line x1="30" y1="365" x2="70" y2="365" />
<line x1="80" y1="365" x2="120" y2="365" />
</g>
<circle cx="210" cy="360" r="5" style="fill:rgb(190,190,190)" />
<text x="120" y="410" style="font-size:20px;fill:white" >West</text>
<polygon points="510,420 502,432 510,432 518,432" style="fill:rgb(0,127,0);fill-opacity:1.0" />
<line x1="510" y1="580" x2="510" y2="432" style="stroke:rgb(0,127,0);fill:none" />
<text x="516" y="506" style="text-anchor:start;" >[9]</text>
<polygon points="560,420 552,432 560,432 568,432" style="fill:rgb(0,127,0);fill-opacity:1.0" />
<line x1="560" y1="580" x2="560" y2="432" style="stroke:rgb(0,127,0);fill:none" />
<text x="566" y="506" style="text-anchor:start;" >[10]</text>
<polygon points="610,420 602,432 610,432 618,432" style="fill:rgb(0,127,0);fill-opacity:1.0" />
<line x1="610" y1="580" x2="610" y2="432" style="stroke:rgb(0,127,0);fill:none" />
<text x="616" y="506" style="text-anchor:start;" >[11]</text>
<polygon points="120,420 112,432 120,432 128,432" style="fill:rgb(190,190,190);fill-opacity:1.0" />
<line x1="460" y1="640" x2="120" y2="432" style="stroke:rgb(190,190,190);fill:none" />
<text x="296" y="536" style="text-anchor:start;" >South to West</text>
<polygon points="480,580 520,580 540,590 660,590 660,700 480,700" style="fill:rgb(190,190,190)" />
<polygon points="660,700 640,610 460,610 480,700" style="fill:gray" />
<g style="font-size:20px;fill:white">
<text x="560" y="640" >South</text>
<text x="560" y="662" style="font-size:60%" >bottom</text>
<text x="560" y="680" style="font-size:75%" >S</text>
</g>
<polygon points="660,300 676,294 676,300 676,306" style="fill:rgb(0,0,127);fill-opacity:1.0" />
<line x1="900" y1="300" x2="676" y2="300" style="stroke:rgb(0,0,127);fill:none" />
<text x="788" y="294" style="text-anchor:middle;baseline-shift:20%;" >[12]</text>
<polygon points="660,330 676,324 676,330 676,336" style="fill:rgb(0,0,127);fill-opacity:1.0" />
<line x1="900" y1="330" x2="676" y2="330" style="stroke:rgb(0,0,127);fill:none" />
<text x="788" y="324" style="text-anchor:middle;baseline-shift:20%;" >[13]</text>
<polygon points="660,360 676,354 676,360 676,366" style="fill:rgb(0,0,127);fill-opacity:1.0" />
<line x1="900" y1="360" x2="676" y2="360" style="stroke:rgb(0,0,127);fill:none" />
<text x="788" y="354" style="text-anchor:middle;baseline-shift:20%;" >[14]</text>
<polygon points="660,390 676,384 676,390 676,396" style="fill:rgb(0,0,127);fill-opacity:1.0" />
<line x1="900" y1="390" x2="676" y2="390" style="stroke:rgb(0,0,127);fill:none" />
<text x="788" y="384" style="text-anchor:middle;baseline-shift:20%;" >[15]</text>
<polygon points="660,420 676,414 676,420 676,426" style="fill:rgb(0,0,127);fill-opacity:1.0" />
<line x1="900" y1="420" x2="676" y2="420" style="stroke:rgb(0,0,127);fill:none" />
<text x="788" y="414" style="text-anchor:middle;baseline-shift:20%;" >[16]</text>
<polygon points="660,640 676,634 676,640 676,646" style="fill:rgb(190,190,190);fill-opacity:1.0" />
<line x1="1000" y1="420" x2="676" y2="640" style="stroke:rgb(190,190,190);fill:none" />
<text x="832" y="530" style="text-anchor:end;" >East to South</text>
<rect x="900" y="300" width="200" height="102" rx="6" ry="6" style="fill:black" />
<rect x="906" y="306" width="188" height="90" style="fill:white" />
<polygon points="912,408 900,420 1106,420 1094,408" style="fill:black" />
<g style="font-size:20px">
<text x="1000" y="340" >East</text>
<text x="1000" y="362" style="font-size:60%" >right</text>
<text x="1000" y="380" style="font-size:75%" >E</text>
</g>
</g>
</svg>
