<?xml version="1.0"?>
<!-- Generated by SVGo -->
<svg width="600" height="600"
     xmlns="http://www.w3.org/2000/svg"
     xmlns:xlink="http://www.w3.org/1999/xlink">
<rect x="0" y="0" width="600" height="600" style="fill:rgb(155,10,193)" />
<polygon points="60,60 120,100 60,140 0,100 60,60" style="fill:rgb(48,217,160)" />
<polygon points="0,100 60,140 60,220 0,180 0,100" style="fill:rgb(116,196,32)" />
<polygon points="120,100 120,180 60,220 60,140 120,100" style="fill:rgb(161,145,36)" />
<polygon points="180,60 240,100 180,140 120,100 180,60" style="fill:rgb(37,228,156)" />
<polygon points="120,100 180,140 180,220 120,180 120,100" style="fill:rgb(43,147,86)" />
<polygon points="240,100 240,180 180,220 180,140 240,100" style="fill:rgb(154,161,83)" />
<polygon points="300,60 360,100 300,140 240,100 300,60" style="fill:rgb(223,6,229)" />
<polygon points="240,100 300,140 300,220 240,180 240,100" style="fill:rgb(92,167,146)" />
<polygon points="360,100 360,180 300,220 300,140 360,100" style="fill:rgb(24,208,104)" />
<polygon points="420,60 480,100 420,140 360,100 420,60" style="fill:rgb(225,44,92)" />
<polygon points="360,100 420,140 420,220 360,180 360,100" style="fill:rgb(198,123,11)" />
<polygon points="480,100 480,180 420,220 420,140 480,100" style="fill:rgb(94,215,27)" />
<polygon points="540,60 600,100 540,140 480,100 540,60" style="fill:rgb(197,103,235)" />
<polygon points="480,100 540,140 540,220 480,180 480,100" style="fill:rgb(69,202,63)" />
<polygon points="600,100 600,180 540,220 540,140 600,100" style="fill:rgb(40,205,168)" />
<polygon points="60,220 120,260 60,300 0,260 60,220" style="fill:rgb(211,249,150)" />
<polygon points="0,260 60,300 60,380 0,340 0,260" style="fill:rgb(130,111,226)" />
<polygon points="120,260 120,340 60,380 60,300 120,260" style="fill:rgb(156,37,112)" />
<polygon points="180,220 240,260 180,300 120,260 180,220" style="fill:rgb(138,67,173)" />
<polygon points="120,260 180,300 180,380 120,340 120,260" style="fill:rgb(207,51,242)" />
<polygon points="240,260 240,340 180,380 180,300 240,260" style="fill:rgb(148,136,93)" />
<polygon points="300,220 360,260 300,300 240,260 300,220" style="fill:rgb(5,55,36)" />
<polygon points="240,260 300,300 300,380 240,340 240,260" style="fill:rgb(241,141,88)" />
<polygon points="360,260 360,340 300,380 300,300 360,260" style="fill:rgb(89,69,213)" />
<polygon points="420,220 480,260 420,300 360,260 420,220" style="fill:rgb(162,120,197)" />
<polygon points="360,260 420,300 420,380 360,340 360,260" style="fill:rgb(57,14,0)" />
<polygon points="480,260 480,340 420,380 420,300 480,260" style="fill:rgb(27,99,193)" />
<polygon points="540,220 600,260 540,300 480,260 540,220" style="fill:rgb(113,181,159)" />
<polygon points="480,260 540,300 540,380 480,340 480,260" style="fill:rgb(30,69,160)" />
<polygon points="600,260 600,340 540,380 540,300 600,260" style="fill:rgb(119,163,89)" />
<polygon points="60,380 120,420 60,460 0,420 60,380" style="fill:rgb(170,84,99)" />
<polygon points="0,420 60,460 60,540 0,500 0,420" style="fill:rgb(86,101,38)" />
<polygon points="120,420 120,500 60,540 60,460 120,420" style="fill:rgb(134,225,0)" />
<polygon points="180,380 240,420 180,460 120,420 180,380" style="fill:rgb(162,88,61)" />
<polygon points="120,420 180,460 180,540 120,500 120,420" style="fill:rgb(228,91,209)" />
<polygon points="240,420 240,500 180,540 180,460 240,420" style="fill:rgb(22,8,13)" />
<polygon points="300,380 360,420 300,460 240,420 300,380" style="fill:rgb(12,32,1)" />
<polygon points="240,420 300,460 300,540 240,500 240,420" style="fill:rgb(5,126,149)" />
<polygon points="360,420 360,500 300,540 300,460 360,420" style="fill:rgb(74,150,216)" />
<polygon points="420,380 480,420 420,460 360,420 420,380" style="fill:rgb(1,150,85)" />
<polygon points="360,420 420,460 420,540 360,500 360,420" style="fill:rgb(130,83,224)" />
<polygon points="480,420 480,500 420,540 420,460 480,420" style="fill:rgb(224,214,59)" />
<polygon points="540,380 600,420 540,460 480,420 540,380" style="fill:rgb(246,228,27)" />
<polygon points="480,420 540,460 540,540 480,500 480,420" style="fill:rgb(10,151,160)" />
<polygon points="600,420 600,500 540,540 540,460 600,420" style="fill:rgb(79,36,124)" />
</svg>
