<?xml version="1.0"?>
<!-- Generated by SVGo -->
<svg width="1024" height="1200"
     xmlns="http://www.w3.org/2000/svg"
     xmlns:xlink="http://www.w3.org/1999/xlink">
<g clip-path="url(#pic)" transform="translate(50,50)" >
<clipPath id="pic" ><rect x="0" y="0" width="460" height="130" />
</clipPath>

<rect x="0" y="0" width="460" height="130" style="fill:white" />
<rect x="50" y="20" width="400" height="90" style="fill:rgb(240,240,240)" />
<g style="font-family:Calibri,sans;font-size:11pt;stroke-width:2px">
<text x="50" y="30" style="font-size:120%;fill:black" >showbg</text>
</g>
</g>
<g clip-path="url(#pic)" transform="translate(50,190)" >
<clipPath id="pic" ><rect x="0" y="0" width="460" height="130" />
</clipPath>

<rect x="0" y="0" width="460" height="130" style="fill:white" />
<rect x="50" y="20" width="400" height="90" style="fill:rgb(240,240,240)" />
<g style="font-family:Calibri,sans;font-size:11pt;stroke-width:2px">
<polyline points="50,108 58,105 66,99 74,90 82,82 90,80 98,72 106,82 114,86 122,81 130,78 138,84 146,38 154,39 162,34 170,39 178,31 186,23 194,23 202,20 210,31 218,28 226,33 234,31 242,41 250,35 258,51 266,50 274,73 282,54 290,71 298,62 306,61 314,65 322,78 330,82 338,100 346,110 354,105 362,90 370,88 378,90 386,86 394,78 402,76 410,76 418,82 426,87 434,89 442,81 450,80" style="fill:none;stroke:gray" />
<text x="50" y="30" style="font-size:120%;fill:black" >connect</text>
</g>
</g>
<g clip-path="url(#pic)" transform="translate(50,330)" >
<clipPath id="pic" ><rect x="0" y="0" width="460" height="130" />
</clipPath>

<rect x="0" y="0" width="460" height="130" style="fill:white" />
<rect x="50" y="20" width="400" height="90" style="fill:rgb(240,240,240)" />
<g style="font-family:Calibri,sans;font-size:11pt;stroke-width:2px">
<line x1="50" y1="108" x2="50" y2="110" style="fill:none;stroke:gray;stroke-width:3px" />
<line x1="58" y1="105" x2="58" y2="110" style="fill:none;stroke:gray;stroke-width:3px" />
<line x1="66" y1="99" x2="66" y2="110" style="fill:none;stroke:gray;stroke-width:3px" />
<line x1="74" y1="90" x2="74" y2="110" style="fill:none;stroke:gray;stroke-width:3px" />
<line x1="82" y1="82" x2="82" y2="110" style="fill:none;stroke:gray;stroke-width:3px" />
<line x1="90" y1="80" x2="90" y2="110" style="fill:none;stroke:gray;stroke-width:3px" />
<line x1="98" y1="72" x2="98" y2="110" style="fill:none;stroke:gray;stroke-width:3px" />
<line x1="106" y1="82" x2="106" y2="110" style="fill:none;stroke:gray;stroke-width:3px" />
<line x1="114" y1="86" x2="114" y2="110" style="fill:none;stroke:gray;stroke-width:3px" />
<line x1="122" y1="81" x2="122" y2="110" style="fill:none;stroke:gray;stroke-width:3px" />
<line x1="130" y1="78" x2="130" y2="110" style="fill:none;stroke:gray;stroke-width:3px" />
<line x1="138" y1="84" x2="138" y2="110" style="fill:none;stroke:gray;stroke-width:3px" />
<line x1="146" y1="38" x2="146" y2="110" style="fill:none;stroke:gray;stroke-width:3px" />
<line x1="154" y1="39" x2="154" y2="110" style="fill:none;stroke:gray;stroke-width:3px" />
<line x1="162" y1="34" x2="162" y2="110" style="fill:none;stroke:gray;stroke-width:3px" />
<line x1="170" y1="39" x2="170" y2="110" style="fill:none;stroke:gray;stroke-width:3px" />
<line x1="178" y1="31" x2="178" y2="110" style="fill:none;stroke:gray;stroke-width:3px" />
<line x1="186" y1="23" x2="186" y2="110" style="fill:none;stroke:gray;stroke-width:3px" />
<line x1="194" y1="23" x2="194" y2="110" style="fill:none;stroke:gray;stroke-width:3px" />
<line x1="202" y1="20" x2="202" y2="110" style="fill:none;stroke:gray;stroke-width:3px" />
<line x1="210" y1="31" x2="210" y2="110" style="fill:none;stroke:gray;stroke-width:3px" />
<line x1="218" y1="28" x2="218" y2="110" style="fill:none;stroke:gray;stroke-width:3px" />
<line x1="226" y1="33" x2="226" y2="110" style="fill:none;stroke:gray;stroke-width:3px" />
<line x1="234" y1="31" x2="234" y2="110" style="fill:none;stroke:gray;stroke-width:3px" />
<line x1="242" y1="41" x2="242" y2="110" style="fill:none;stroke:gray;stroke-width:3px" />
<line x1="250" y1="35" x2="250" y2="110" style="fill:none;stroke:gray;stroke-width:3px" />
<line x1="258" y1="51" x2="258" y2="110" style="fill:none;stroke:gray;stroke-width:3px" />
<line x1="266" y1="50" x2="266" y2="110" style="fill:none;stroke:gray;stroke-width:3px" />
<line x1="274" y1="73" x2="274" y2="110" style="fill:none;stroke:gray;stroke-width:3px" />
<line x1="282" y1="54" x2="282" y2="110" style="fill:none;stroke:gray;stroke-width:3px" />
<line x1="290" y1="71" x2="290" y2="110" style="fill:none;stroke:gray;stroke-width:3px" />
<line x1="298" y1="62" x2="298" y2="110" style="fill:none;stroke:gray;stroke-width:3px" />
<line x1="306" y1="61" x2="306" y2="110" style="fill:none;stroke:gray;stroke-width:3px" />
<line x1="314" y1="65" x2="314" y2="110" style="fill:none;stroke:gray;stroke-width:3px" />
<line x1="322" y1="78" x2="322" y2="110" style="fill:none;stroke:gray;stroke-width:3px" />
<line x1="330" y1="82" x2="330" y2="110" style="fill:none;stroke:gray;stroke-width:3px" />
<line x1="338" y1="100" x2="338" y2="110" style="fill:none;stroke:gray;stroke-width:3px" />
<line x1="346" y1="110" x2="346" y2="110" style="fill:none;stroke:gray;stroke-width:3px" />
<line x1="354" y1="105" x2="354" y2="110" style="fill:none;stroke:gray;stroke-width:3px" />
<line x1="362" y1="90" x2="362" y2="110" style="fill:none;stroke:gray;stroke-width:3px" />
<line x1="370" y1="88" x2="370" y2="110" style="fill:none;stroke:gray;stroke-width:3px" />
<line x1="378" y1="90" x2="378" y2="110" style="fill:none;stroke:gray;stroke-width:3px" />
<line x1="386" y1="86" x2="386" y2="110" style="fill:none;stroke:gray;stroke-width:3px" />
<line x1="394" y1="78" x2="394" y2="110" style="fill:none;stroke:gray;stroke-width:3px" />
<line x1="402" y1="76" x2="402" y2="110" style="fill:none;stroke:gray;stroke-width:3px" />
<line x1="410" y1="76" x2="410" y2="110" style="fill:none;stroke:gray;stroke-width:3px" />
<line x1="418" y1="82" x2="418" y2="110" style="fill:none;stroke:gray;stroke-width:3px" />
<line x1="426" y1="87" x2="426" y2="110" style="fill:none;stroke:gray;stroke-width:3px" />
<line x1="434" y1="89" x2="434" y2="110" style="fill:none;stroke:gray;stroke-width:3px" />
<line x1="442" y1="81" x2="442" y2="110" style="fill:none;stroke:gray;stroke-width:3px" />
<line x1="450" y1="80" x2="450" y2="110" style="fill:none;stroke:gray;stroke-width:3px" />
<text x="50" y="30" style="font-size:120%;fill:black" >showbar</text>
</g>
</g>
<g clip-path="url(#pic)" transform="translate(50,470)" >
<clipPath id="pic" ><rect x="0" y="0" width="460" height="130" />
</clipPath>

<rect x="0" y="0" width="460" height="130" style="fill:white" />
<rect x="50" y="20" width="400" height="90" style="fill:rgb(240,240,240)" />
<g style="font-family:Calibri,sans;font-size:11pt;stroke-width:2px">
<polygon points="50,110 50,108 58,105 66,99 74,90 82,82 90,80 98,72 106,82 114,86 122,81 130,78 138,84 146,38 154,39 162,34 170,39 178,31 186,23 194,23 202,20 210,31 218,28 226,33 234,31 242,41 250,35 258,51 266,50 274,73 282,54 290,71 298,62 306,61 314,65 322,78 330,82 338,100 346,110 354,105 362,90 370,88 378,90 386,86 394,78 402,76 410,76 418,82 426,87 434,89 442,81 450,80 450,110" style="fill:gray" />
<text x="50" y="30" style="font-size:120%;fill:black" >area</text>
</g>
</g>
<g clip-path="url(#pic)" transform="translate(50,610)" >
<clipPath id="pic" ><rect x="0" y="0" width="460" height="130" />
</clipPath>

<rect x="0" y="0" width="460" height="130" style="fill:white" />
<rect x="50" y="20" width="400" height="90" style="fill:rgb(240,240,240)" />
<g style="font-family:Calibri,sans;font-size:11pt;stroke-width:2px">
<circle cx="50" cy="108" r="2" style="fill:black" />
<circle cx="58" cy="105" r="2" style="fill:black" />
<circle cx="66" cy="99" r="2" style="fill:black" />
<circle cx="74" cy="90" r="2" style="fill:black" />
<circle cx="82" cy="82" r="2" style="fill:black" />
<circle cx="90" cy="80" r="2" style="fill:black" />
<circle cx="98" cy="72" r="2" style="fill:black" />
<circle cx="106" cy="82" r="2" style="fill:black" />
<circle cx="114" cy="86" r="2" style="fill:black" />
<circle cx="122" cy="81" r="2" style="fill:black" />
<circle cx="130" cy="78" r="2" style="fill:black" />
<circle cx="138" cy="84" r="2" style="fill:black" />
<circle cx="146" cy="38" r="2" style="fill:black" />
<circle cx="154" cy="39" r="2" style="fill:black" />
<circle cx="162" cy="34" r="2" style="fill:black" />
<circle cx="170" cy="39" r="2" style="fill:black" />
<circle cx="178" cy="31" r="2" style="fill:black" />
<circle cx="186" cy="23" r="2" style="fill:black" />
<circle cx="194" cy="23" r="2" style="fill:black" />
<circle cx="202" cy="20" r="2" style="fill:black" />
<circle cx="210" cy="31" r="2" style="fill:black" />
<circle cx="218" cy="28" r="2" style="fill:black" />
<circle cx="226" cy="33" r="2" style="fill:black" />
<circle cx="234" cy="31" r="2" style="fill:black" />
<circle cx="242" cy="41" r="2" style="fill:black" />
<circle cx="250" cy="35" r="2" style="fill:black" />
<circle cx="258" cy="51" r="2" style="fill:black" />
<circle cx="266" cy="50" r="2" style="fill:black" />
<circle cx="274" cy="73" r="2" style="fill:black" />
<circle cx="282" cy="54" r="2" style="fill:black" />
<circle cx="290" cy="71" r="2" style="fill:black" />
<circle cx="298" cy="62" r="2" style="fill:black" />
<circle cx="306" cy="61" r="2" style="fill:black" />
<circle cx="314" cy="65" r="2" style="fill:black" />
<circle cx="322" cy="78" r="2" style="fill:black" />
<circle cx="330" cy="82" r="2" style="fill:black" />
<circle cx="338" cy="100" r="2" style="fill:black" />
<circle cx="346" cy="110" r="2" style="fill:black" />
<circle cx="354" cy="105" r="2" style="fill:black" />
<circle cx="362" cy="90" r="2" style="fill:black" />
<circle cx="370" cy="88" r="2" style="fill:black" />
<circle cx="378" cy="90" r="2" style="fill:black" />
<circle cx="386" cy="86" r="2" style="fill:black" />
<circle cx="394" cy="78" r="2" style="fill:black" />
<circle cx="402" cy="76" r="2" style="fill:black" />
<circle cx="410" cy="76" r="2" style="fill:black" />
<circle cx="418" cy="82" r="2" style="fill:black" />
<circle cx="426" cy="87" r="2" style="fill:black" />
<circle cx="434" cy="89" r="2" style="fill:black" />
<circle cx="442" cy="81" r="2" style="fill:black" />
<circle cx="450" cy="80" r="2" style="fill:black" />
<text x="50" y="30" style="font-size:120%;fill:black" >showdot</text>
</g>
</g>
<g clip-path="url(#pic)" transform="translate(50,750)" >
<clipPath id="pic" ><rect x="0" y="0" width="460" height="130" />
</clipPath>

<rect x="0" y="0" width="460" height="130" style="fill:white" />
<rect x="50" y="20" width="400" height="90" style="fill:rgb(240,240,240)" />
<g style="font-family:Calibri,sans;font-size:11pt;stroke-width:2px">
<text x="50" y="130" style="text-anchor:middle" >0</text>
<line x1="50" y1="110" x2="50" y2="120" style="stroke:rgb(200,200,200);stroke-width:1px" />
<text x="130" y="130" style="text-anchor:middle" >10</text>
<line x1="130" y1="110" x2="130" y2="120" style="stroke:rgb(200,200,200);stroke-width:1px" />
<text x="210" y="130" style="text-anchor:middle" >20</text>
<line x1="210" y1="110" x2="210" y2="120" style="stroke:rgb(200,200,200);stroke-width:1px" />
<text x="290" y="130" style="text-anchor:middle" >30</text>
<line x1="290" y1="110" x2="290" y2="120" style="stroke:rgb(200,200,200);stroke-width:1px" />
<text x="370" y="130" style="text-anchor:middle" >40</text>
<line x1="370" y1="110" x2="370" y2="120" style="stroke:rgb(200,200,200);stroke-width:1px" />
<text x="450" y="130" style="text-anchor:middle" >50</text>
<line x1="450" y1="110" x2="450" y2="120" style="stroke:rgb(200,200,200);stroke-width:1px" />
<polyline points="50,108 58,105 66,99 74,90 82,82 90,80 98,72 106,82 114,86 122,81 130,78 138,84 146,38 154,39 162,34 170,39 178,31 186,23 194,23 202,20 210,31 218,28 226,33 234,31 242,41 250,35 258,51 266,50 274,73 282,54 290,71 298,62 306,61 314,65 322,78 330,82 338,100 346,110 354,105 362,90 370,88 378,90 386,86 394,78 402,76 410,76 418,82 426,87 434,89 442,81 450,80" style="fill:none;stroke:gray" />
<text x="50" y="30" style="font-size:120%;fill:black" >showx</text>
</g>
</g>
<g clip-path="url(#pic)" transform="translate(50,890)" >
<clipPath id="pic" ><rect x="0" y="0" width="460" height="130" />
</clipPath>

<rect x="0" y="0" width="460" height="130" style="fill:white" />
<rect x="50" y="20" width="400" height="90" style="fill:rgb(240,240,240)" />
<g style="font-family:Calibri,sans;font-size:11pt;stroke-width:2px">
<polyline points="50,108 58,105 66,99 74,90 82,82 90,80 98,72 106,82 114,86 122,81 130,78 138,84 146,38 154,39 162,34 170,39 178,31 186,23 194,23 202,20 210,31 218,28 226,33 234,31 242,41 250,35 258,51 266,50 274,73 282,54 290,71 298,62 306,61 314,65 322,78 330,82 338,100 346,110 354,105 362,90 370,88 378,90 386,86 394,78 402,76 410,76 418,82 426,87 434,89 442,81 450,80" style="fill:none;stroke:gray" />
<g style="stroke:rgb(200,200,200);stroke-width:1px;text-anchor:end;fill:black">
<text x="40" y="110" style="stroke:none;baseline-shift:-33.3%" >490.0</text>
<line x1="40" y1="110" x2="50" y2="110" />
<text x="40" y="88" style="stroke:none;baseline-shift:-33.3%" >523.2</text>
<line x1="40" y1="88" x2="50" y2="88" />
<text x="40" y="65" style="stroke:none;baseline-shift:-33.3%" >556.5</text>
<line x1="40" y1="65" x2="50" y2="65" />
<text x="40" y="43" style="stroke:none;baseline-shift:-33.3%" >589.8</text>
<line x1="40" y1="43" x2="50" y2="43" />
<text x="40" y="20" style="stroke:none;baseline-shift:-33.3%" >623.0</text>
<line x1="40" y1="20" x2="50" y2="20" />
</g>
<text x="50" y="30" style="font-size:120%;fill:black" >showy</text>
</g>
</g>
<g clip-path="url(#pic)" transform="translate(50,1030)" >
<clipPath id="pic" ><rect x="0" y="0" width="460" height="130" />
</clipPath>

<rect x="0" y="0" width="460" height="130" style="fill:white" />
<rect x="50" y="20" width="400" height="90" style="fill:rgb(240,240,240)" />
<g style="font-family:Calibri,sans;font-size:11pt;stroke-width:2px">
<polyline points="50,108 58,105 66,99 74,90 82,82 90,80 98,72 106,82 114,86 122,81 130,78 138,84 146,38 154,39 162,34 170,39 178,31 186,23 194,23 202,20 210,31 218,28 226,33 234,31 242,41 250,35 258,51 266,50 274,73 282,54 290,71 298,62 306,61 314,65 322,78 330,82 338,100 346,110 354,105 362,90 370,88 378,90 386,86 394,78 402,76 410,76 418,82 426,87 434,89 442,81 450,80" style="fill:none;stroke:gray" />
<text x="50" y="30" style="font-size:120%;fill:black" >test.d</text>
</g>
</g>
<g clip-path="url(#pic)" transform="translate(520,50)" >
<clipPath id="pic" ><rect x="0" y="0" width="460" height="130" />
</clipPath>

<rect x="0" y="0" width="460" height="130" style="fill:white" />
<rect x="50" y="20" width="400" height="90" style="fill:lightsteelblue" />
<g style="font-family:Calibri,sans;font-size:11pt;stroke-width:2px">
<polyline points="50,108 58,105 66,99 74,90 82,82 90,80 98,72 106,82 114,86 122,81 130,78 138,84 146,38 154,39 162,34 170,39 178,31 186,23 194,23 202,20 210,31 218,28 226,33 234,31 242,41 250,35 258,51 266,50 274,73 282,54 290,71 298,62 306,61 314,65 322,78 330,82 338,100 346,110 354,105 362,90 370,88 378,90 386,86 394,78 402,76 410,76 418,82 426,87 434,89 442,81 450,80" style="fill:none;stroke:gray" />
<text x="50" y="30" style="font-size:120%;fill:black" >bgcolor</text>
</g>
</g>
<g clip-path="url(#pic)" transform="translate(520,190)" >
<clipPath id="pic" ><rect x="0" y="0" width="460" height="130" />
</clipPath>

<rect x="0" y="0" width="460" height="130" style="fill:white" />
<rect x="50" y="20" width="400" height="90" style="fill:rgb(240,240,240)" />
<g style="font-family:Calibri,sans;font-size:11pt;stroke-width:2px">
<polyline points="50,108 58,105 66,99 74,90 82,82 90,80 98,72 106,82 114,86 122,81 130,78 138,84 146,38 154,39 162,34 170,39 178,31 186,23 194,23 202,20 210,31 218,28 226,33 234,31 242,41 250,35 258,51 266,50 274,73 282,54 290,71 298,62 306,61 314,65 322,78 330,82 338,100 346,110 354,105 362,90 370,88 378,90 386,86 394,78 402,76 410,76 418,82 426,87 434,89 442,81 450,80" style="fill:none;stroke:red" />
<text x="50" y="30" style="font-size:120%;fill:black" >linecolor</text>
</g>
</g>
<g clip-path="url(#pic)" transform="translate(520,330)" >
<clipPath id="pic" ><rect x="0" y="0" width="460" height="130" />
</clipPath>

<rect x="0" y="0" width="460" height="130" style="fill:white" />
<rect x="50" y="20" width="400" height="90" style="fill:rgb(240,240,240)" />
<g style="font-family:Calibri,sans;font-size:11pt;stroke-width:2px">
<line x1="50" y1="108" x2="50" y2="110" style="fill:none;stroke:red;stroke-width:3px" />
<line x1="58" y1="105" x2="58" y2="110" style="fill:none;stroke:red;stroke-width:3px" />
<line x1="66" y1="99" x2="66" y2="110" style="fill:none;stroke:red;stroke-width:3px" />
<line x1="74" y1="90" x2="74" y2="110" style="fill:none;stroke:red;stroke-width:3px" />
<line x1="82" y1="82" x2="82" y2="110" style="fill:none;stroke:red;stroke-width:3px" />
<line x1="90" y1="80" x2="90" y2="110" style="fill:none;stroke:red;stroke-width:3px" />
<line x1="98" y1="72" x2="98" y2="110" style="fill:none;stroke:red;stroke-width:3px" />
<line x1="106" y1="82" x2="106" y2="110" style="fill:none;stroke:red;stroke-width:3px" />
<line x1="114" y1="86" x2="114" y2="110" style="fill:none;stroke:red;stroke-width:3px" />
<line x1="122" y1="81" x2="122" y2="110" style="fill:none;stroke:red;stroke-width:3px" />
<line x1="130" y1="78" x2="130" y2="110" style="fill:none;stroke:red;stroke-width:3px" />
<line x1="138" y1="84" x2="138" y2="110" style="fill:none;stroke:red;stroke-width:3px" />
<line x1="146" y1="38" x2="146" y2="110" style="fill:none;stroke:red;stroke-width:3px" />
<line x1="154" y1="39" x2="154" y2="110" style="fill:none;stroke:red;stroke-width:3px" />
<line x1="162" y1="34" x2="162" y2="110" style="fill:none;stroke:red;stroke-width:3px" />
<line x1="170" y1="39" x2="170" y2="110" style="fill:none;stroke:red;stroke-width:3px" />
<line x1="178" y1="31" x2="178" y2="110" style="fill:none;stroke:red;stroke-width:3px" />
<line x1="186" y1="23" x2="186" y2="110" style="fill:none;stroke:red;stroke-width:3px" />
<line x1="194" y1="23" x2="194" y2="110" style="fill:none;stroke:red;stroke-width:3px" />
<line x1="202" y1="20" x2="202" y2="110" style="fill:none;stroke:red;stroke-width:3px" />
<line x1="210" y1="31" x2="210" y2="110" style="fill:none;stroke:red;stroke-width:3px" />
<line x1="218" y1="28" x2="218" y2="110" style="fill:none;stroke:red;stroke-width:3px" />
<line x1="226" y1="33" x2="226" y2="110" style="fill:none;stroke:red;stroke-width:3px" />
<line x1="234" y1="31" x2="234" y2="110" style="fill:none;stroke:red;stroke-width:3px" />
<line x1="242" y1="41" x2="242" y2="110" style="fill:none;stroke:red;stroke-width:3px" />
<line x1="250" y1="35" x2="250" y2="110" style="fill:none;stroke:red;stroke-width:3px" />
<line x1="258" y1="51" x2="258" y2="110" style="fill:none;stroke:red;stroke-width:3px" />
<line x1="266" y1="50" x2="266" y2="110" style="fill:none;stroke:red;stroke-width:3px" />
<line x1="274" y1="73" x2="274" y2="110" style="fill:none;stroke:red;stroke-width:3px" />
<line x1="282" y1="54" x2="282" y2="110" style="fill:none;stroke:red;stroke-width:3px" />
<line x1="290" y1="71" x2="290" y2="110" style="fill:none;stroke:red;stroke-width:3px" />
<line x1="298" y1="62" x2="298" y2="110" style="fill:none;stroke:red;stroke-width:3px" />
<line x1="306" y1="61" x2="306" y2="110" style="fill:none;stroke:red;stroke-width:3px" />
<line x1="314" y1="65" x2="314" y2="110" style="fill:none;stroke:red;stroke-width:3px" />
<line x1="322" y1="78" x2="322" y2="110" style="fill:none;stroke:red;stroke-width:3px" />
<line x1="330" y1="82" x2="330" y2="110" style="fill:none;stroke:red;stroke-width:3px" />
<line x1="338" y1="100" x2="338" y2="110" style="fill:none;stroke:red;stroke-width:3px" />
<line x1="346" y1="110" x2="346" y2="110" style="fill:none;stroke:red;stroke-width:3px" />
<line x1="354" y1="105" x2="354" y2="110" style="fill:none;stroke:red;stroke-width:3px" />
<line x1="362" y1="90" x2="362" y2="110" style="fill:none;stroke:red;stroke-width:3px" />
<line x1="370" y1="88" x2="370" y2="110" style="fill:none;stroke:red;stroke-width:3px" />
<line x1="378" y1="90" x2="378" y2="110" style="fill:none;stroke:red;stroke-width:3px" />
<line x1="386" y1="86" x2="386" y2="110" style="fill:none;stroke:red;stroke-width:3px" />
<line x1="394" y1="78" x2="394" y2="110" style="fill:none;stroke:red;stroke-width:3px" />
<line x1="402" y1="76" x2="402" y2="110" style="fill:none;stroke:red;stroke-width:3px" />
<line x1="410" y1="76" x2="410" y2="110" style="fill:none;stroke:red;stroke-width:3px" />
<line x1="418" y1="82" x2="418" y2="110" style="fill:none;stroke:red;stroke-width:3px" />
<line x1="426" y1="87" x2="426" y2="110" style="fill:none;stroke:red;stroke-width:3px" />
<line x1="434" y1="89" x2="434" y2="110" style="fill:none;stroke:red;stroke-width:3px" />
<line x1="442" y1="81" x2="442" y2="110" style="fill:none;stroke:red;stroke-width:3px" />
<line x1="450" y1="80" x2="450" y2="110" style="fill:none;stroke:red;stroke-width:3px" />
<text x="50" y="30" style="font-size:120%;fill:black" >barcolor</text>
</g>
</g>
<g clip-path="url(#pic)" transform="translate(520,470)" >
<clipPath id="pic" ><rect x="0" y="0" width="460" height="130" />
</clipPath>

<rect x="0" y="0" width="460" height="130" style="fill:white" />
<rect x="50" y="20" width="400" height="90" style="fill:rgb(240,240,240)" />
<g style="font-family:Calibri,sans;font-size:11pt;stroke-width:2px">
<polygon points="50,110 50,108 58,105 66,99 74,90 82,82 90,80 98,72 106,82 114,86 122,81 130,78 138,84 146,38 154,39 162,34 170,39 178,31 186,23 194,23 202,20 210,31 218,28 226,33 234,31 242,41 250,35 258,51 266,50 274,73 282,54 290,71 298,62 306,61 314,65 322,78 330,82 338,100 346,110 354,105 362,90 370,88 378,90 386,86 394,78 402,76 410,76 418,82 426,87 434,89 442,81 450,80 450,110" style="fill:red" />
<text x="50" y="30" style="font-size:120%;fill:black" >hcolor</text>
</g>
</g>
<g clip-path="url(#pic)" transform="translate(520,610)" >
<clipPath id="pic" ><rect x="0" y="0" width="460" height="130" />
</clipPath>

<rect x="0" y="0" width="460" height="130" style="fill:white" />
<rect x="50" y="20" width="400" height="90" style="fill:rgb(240,240,240)" />
<g style="font-family:Calibri,sans;font-size:11pt;stroke-width:2px">
<circle cx="50" cy="108" r="2" style="fill:red" />
<circle cx="58" cy="105" r="2" style="fill:red" />
<circle cx="66" cy="99" r="2" style="fill:red" />
<circle cx="74" cy="90" r="2" style="fill:red" />
<circle cx="82" cy="82" r="2" style="fill:red" />
<circle cx="90" cy="80" r="2" style="fill:red" />
<circle cx="98" cy="72" r="2" style="fill:red" />
<circle cx="106" cy="82" r="2" style="fill:red" />
<circle cx="114" cy="86" r="2" style="fill:red" />
<circle cx="122" cy="81" r="2" style="fill:red" />
<circle cx="130" cy="78" r="2" style="fill:red" />
<circle cx="138" cy="84" r="2" style="fill:red" />
<circle cx="146" cy="38" r="2" style="fill:red" />
<circle cx="154" cy="39" r="2" style="fill:red" />
<circle cx="162" cy="34" r="2" style="fill:red" />
<circle cx="170" cy="39" r="2" style="fill:red" />
<circle cx="178" cy="31" r="2" style="fill:red" />
<circle cx="186" cy="23" r="2" style="fill:red" />
<circle cx="194" cy="23" r="2" style="fill:red" />
<circle cx="202" cy="20" r="2" style="fill:red" />
<circle cx="210" cy="31" r="2" style="fill:red" />
<circle cx="218" cy="28" r="2" style="fill:red" />
<circle cx="226" cy="33" r="2" style="fill:red" />
<circle cx="234" cy="31" r="2" style="fill:red" />
<circle cx="242" cy="41" r="2" style="fill:red" />
<circle cx="250" cy="35" r="2" style="fill:red" />
<circle cx="258" cy="51" r="2" style="fill:red" />
<circle cx="266" cy="50" r="2" style="fill:red" />
<circle cx="274" cy="73" r="2" style="fill:red" />
<circle cx="282" cy="54" r="2" style="fill:red" />
<circle cx="290" cy="71" r="2" style="fill:red" />
<circle cx="298" cy="62" r="2" style="fill:red" />
<circle cx="306" cy="61" r="2" style="fill:red" />
<circle cx="314" cy="65" r="2" style="fill:red" />
<circle cx="322" cy="78" r="2" style="fill:red" />
<circle cx="330" cy="82" r="2" style="fill:red" />
<circle cx="338" cy="100" r="2" style="fill:red" />
<circle cx="346" cy="110" r="2" style="fill:red" />
<circle cx="354" cy="105" r="2" style="fill:red" />
<circle cx="362" cy="90" r="2" style="fill:red" />
<circle cx="370" cy="88" r="2" style="fill:red" />
<circle cx="378" cy="90" r="2" style="fill:red" />
<circle cx="386" cy="86" r="2" style="fill:red" />
<circle cx="394" cy="78" r="2" style="fill:red" />
<circle cx="402" cy="76" r="2" style="fill:red" />
<circle cx="410" cy="76" r="2" style="fill:red" />
<circle cx="418" cy="82" r="2" style="fill:red" />
<circle cx="426" cy="87" r="2" style="fill:red" />
<circle cx="434" cy="89" r="2" style="fill:red" />
<circle cx="442" cy="81" r="2" style="fill:red" />
<circle cx="450" cy="80" r="2" style="fill:red" />
<text x="50" y="30" style="font-size:120%;fill:black" >dotcolor</text>
</g>
</g>
<g clip-path="url(#pic)" transform="translate(520,750)" >
<clipPath id="pic" ><rect x="0" y="0" width="460" height="130" />
</clipPath>

<rect x="0" y="0" width="460" height="130" style="fill:white" />
<rect x="50" y="20" width="400" height="90" style="fill:rgb(240,240,240)" />
<g style="font-family:Calibri,sans;font-size:11pt;stroke-width:2px">
<polyline points="50,108 58,105 66,99 74,90 82,82 90,80 98,72 106,82 114,86 122,81 130,78 138,84 146,38 154,39 162,34 170,39 178,31 186,23 194,23 202,20 210,31 218,28 226,33 234,31 242,41 250,35 258,51 266,50 274,73 282,54 290,71 298,62 306,61 314,65 322,78 330,82 338,100 346,110 354,105 362,90 370,88 378,90 386,86 394,78 402,76 410,76 418,82 426,87 434,89 442,81 450,80" style="fill:none;stroke:gray" />
<text x="50" y="30" style="font-size:120%;fill:red" >labelcolor</text>
</g>
</g>
<g clip-path="url(#pic)" transform="translate(520,890)" >
<clipPath id="pic" ><rect x="0" y="0" width="460" height="130" />
</clipPath>

<rect x="0" y="0" width="460" height="130" style="fill:white" />
<rect x="50" y="20" width="400" height="90" style="fill:rgb(240,240,240)" />
<g style="font-family:Calibri,sans;font-size:11pt;stroke-width:2px">
<polyline points="50,108 58,105 66,99 74,90 82,82 90,80 98,72 106,82 114,86 122,81 130,78 138,84 146,38 154,39 162,34 170,39 178,31 186,23 194,23 202,20 210,31 218,28 226,33 234,31 242,41 250,35 258,51 266,50 274,73 282,54 290,71 298,62 306,61 314,65 322,78 330,82 338,100 346,110 354,105 362,90 370,88 378,90 386,86 394,78 402,76 410,76 418,82 426,87 434,89 442,81 450,80" style="fill:none;stroke:gray" />
<text x="50" y="30" style="font-size:120%;fill:black" >fontsize</text>
</g>
</g>
<g clip-path="url(#pic)" transform="translate(520,1030)" >
<clipPath id="pic" ><rect x="0" y="0" width="460" height="130" />
</clipPath>

<rect x="0" y="0" width="460" height="130" style="fill:white" />
<rect x="50" y="20" width="400" height="90" style="fill:rgb(240,240,240)" />
<g style="font-family:Courier;font-size:11pt;stroke-width:2px">
<polyline points="50,108 58,105 66,99 74,90 82,82 90,80 98,72 106,82 114,86 122,81 130,78 138,84 146,38 154,39 162,34 170,39 178,31 186,23 194,23 202,20 210,31 218,28 226,33 234,31 242,41 250,35 258,51 266,50 274,73 282,54 290,71 298,62 306,61 314,65 322,78 330,82 338,100 346,110 354,105 362,90 370,88 378,90 386,86 394,78 402,76 410,76 418,82 426,87 434,89 442,81 450,80" style="fill:none;stroke:gray" />
<text x="50" y="30" style="font-size:120%;fill:black" >font</text>
</g>
</g>
</svg>
