<?xml version="1.0"?>
<!-- Generated by SVGo -->
<svg width="1024" height="800"
     xmlns="http://www.w3.org/2000/svg"
     xmlns:xlink="http://www.w3.org/1999/xlink">
<rect x="0" y="0" width="1024" height="800" style="fill:white" />
<g style="font-family:'Calibri',sans-serif;font-size:18px">
<title>Bullet Graph</title>
<text x="232" y="66" style="text-anchor:end;font-weight:bold" >Revenue 2005 (275)</text>
<text x="232" y="84" style="fill:darkgray;text-anchor:end;font-size:75%" >USD (1,000)</text>
<g style="text-anchor:middle;font-size:75%">
<text x="250" y="95" >0</text>
<text x="370" y="95" >50</text>
<text x="491" y="95" >100</text>
<text x="612" y="95" >150</text>
<text x="732" y="95" >200</text>
<text x="853" y="95" >250</text>
<text x="974" y="95" >300</text>
</g>
<g style="fill-opacity:0.5;fill:rgb(240,240,240)">
<rect x="250" y="50" width="724" height="32" />
<rect x="250" y="50" width="362" height="32" />
<rect x="250" y="50" width="543" height="32" />
</g>
<rect x="250" y="60" width="663" height="10" style="fill:rgb(200,200,200)" />
<line x1="853" y1="58" x2="853" y2="74" style="stroke-width:3;stroke:rgb(127,0,0)" />
<text x="232" y="134" style="text-anchor:end;font-weight:bold" >Profit (22.5)</text>
<text x="232" y="152" style="fill:darkgray;text-anchor:end;font-size:75%" >%</text>
<g style="text-anchor:middle;font-size:75%">
<text x="250" y="163" >0</text>
<text x="370" y="163" >5</text>
<text x="491" y="163" >10</text>
<text x="612" y="163" >15</text>
<text x="732" y="163" >20</text>
<text x="853" y="163" >25</text>
<text x="974" y="163" >30</text>
</g>
<g style="fill-opacity:0.5;fill:rgb(240,240,240)">
<rect x="250" y="118" width="724" height="32" />
<rect x="250" y="118" width="482" height="32" />
<rect x="250" y="118" width="603" height="32" />
</g>
<rect x="250" y="128" width="543" height="10" style="fill:rgb(200,200,200)" />
<line x1="901" y1="126" x2="901" y2="142" style="stroke-width:3;stroke:rgb(127,0,0)" />
<text x="232" y="202" style="text-anchor:end;font-weight:bold" >Avg Order Size (320)</text>
<text x="232" y="220" style="fill:darkgray;text-anchor:end;font-size:75%" >USD</text>
<g style="text-anchor:middle;font-size:75%">
<text x="250" y="231" >0</text>
<text x="370" y="231" >100</text>
<text x="491" y="231" >200</text>
<text x="612" y="231" >300</text>
<text x="732" y="231" >400</text>
<text x="853" y="231" >500</text>
<text x="974" y="231" >600</text>
</g>
<g style="fill-opacity:0.5;fill:rgb(240,240,240)">
<rect x="250" y="186" width="724" height="32" />
<rect x="250" y="186" width="0" height="32" />
<rect x="250" y="186" width="603" height="32" />
</g>
<rect x="250" y="196" width="386" height="10" style="fill:rgb(200,200,200)" />
<line x1="913" y1="194" x2="913" y2="210" style="stroke-width:3;stroke:rgb(127,0,0)" />
<text x="232" y="270" style="text-anchor:end;font-weight:bold" > New Customers (1750)</text>
<text x="232" y="288" style="fill:darkgray;text-anchor:end;font-size:75%" > Count</text>
<g style="text-anchor:middle;font-size:75%">
<text x="250" y="299" >0</text>
<text x="394" y="299" >500</text>
<text x="539" y="299" >1000</text>
<text x="684" y="299" >1500</text>
<text x="829" y="299" >2000</text>
<text x="974" y="299" >2500</text>
</g>
<g style="fill-opacity:0.5;fill:rgb(240,240,240)">
<rect x="250" y="254" width="724" height="32" />
<rect x="250" y="254" width="0" height="32" />
<rect x="250" y="254" width="579" height="32" />
</g>
<rect x="250" y="264" width="506" height="10" style="fill:rgb(200,200,200)" />
<line x1="858" y1="262" x2="858" y2="278" style="stroke-width:3;stroke:rgb(127,0,0)" />
<text x="232" y="338" style="text-anchor:end;font-weight:bold" > Cust Satisfaction (4.85)</text>
<text x="232" y="356" style="fill:darkgray;text-anchor:end;font-size:75%" > Top rating of 5</text>
<g style="text-anchor:middle;font-size:75%">
<text x="250" y="367" >0</text>
<text x="394" y="367" >1</text>
<text x="539" y="367" >2</text>
<text x="684" y="367" >3</text>
<text x="829" y="367" >4</text>
<text x="974" y="367" >5</text>
</g>
<g style="fill-opacity:0.5;fill:rgb(240,240,240)">
<rect x="250" y="322" width="724" height="32" />
<rect x="250" y="322" width="0" height="32" />
<rect x="250" y="322" width="651" height="32" />
</g>
<rect x="250" y="332" width="702" height="10" style="fill:rgb(200,200,200)" />
<line x1="930" y1="330" x2="930" y2="346" style="stroke-width:3;stroke:rgb(127,0,0)" />
<text x="250" y="426" style="text-anchor:start;font-size:200%" >Bullet Graph</text>
<g style="font-size:100%;text-anchor:start">
<text x="250" y="462" >This is a note</text>
<text x="250" y="483" >More expository text</text>
</g>
</g>
</svg>
