<?xml version="1.0"?>
<!-- Generated by SVGo -->
<svg width="600" height="400"
     xmlns="http://www.w3.org/2000/svg"
     xmlns:xlink="http://www.w3.org/1999/xlink">
<title>Random Integer Comparison</title>
<desc>Comparison of Random integers: the random device &amp; the Go rand package</desc>
<rect x="0" y="0" width="256" height="256" style="fill:white; stroke:gray" />
<rect x="256" y="0" width="256" height="256" style="fill:white; stroke:gray" />
<desc>Left: Go rand package (red), Right: /dev/urandom</desc>
<g style="stroke:none; fill-opacity:0.5">
<circle cx="6" cy="229" r="5" style="fill:rgb(127,0,0)" />
<circle cx="350" cy="10" r="5" style="fill:black" />
<circle cx="1" cy="243" r="5" style="fill:rgb(127,0,0)" />
<circle cx="255" cy="154" r="5" style="fill:black" />
<circle cx="188" cy="96" r="5" style="fill:rgb(127,0,0)" />
<circle cx="304" cy="38" r="5" style="fill:black" />
<circle cx="53" cy="205" r="5" style="fill:rgb(127,0,0)" />
<circle cx="418" cy="185" r="5" style="fill:black" />
<circle cx="158" cy="74" r="5" style="fill:rgb(127,0,0)" />
<circle cx="475" cy="135" r="5" style="fill:black" />
<circle cx="25" cy="104" r="5" style="fill:rgb(127,0,0)" />
<circle cx="418" cy="130" r="5" style="fill:black" />
<circle cx="74" cy="107" r="5" style="fill:rgb(127,0,0)" />
<circle cx="344" cy="57" r="5" style="fill:black" />
<circle cx="211" cy="75" r="5" style="fill:rgb(127,0,0)" />
<circle cx="431" cy="2" r="5" style="fill:black" />
<circle cx="186" cy="211" r="5" style="fill:rgb(127,0,0)" />
<circle cx="308" cy="167" r="5" style="fill:black" />
<circle cx="218" cy="96" r="5" style="fill:rgb(127,0,0)" />
<circle cx="437" cy="0" r="5" style="fill:black" />
<circle cx="245" cy="81" r="5" style="fill:rgb(127,0,0)" />
<circle cx="504" cy="168" r="5" style="fill:black" />
<circle cx="18" cy="182" r="5" style="fill:rgb(127,0,0)" />
<circle cx="354" cy="166" r="5" style="fill:black" />
<circle cx="77" cy="253" r="5" style="fill:rgb(127,0,0)" />
<circle cx="435" cy="35" r="5" style="fill:black" />
<circle cx="238" cy="84" r="5" style="fill:rgb(127,0,0)" />
<circle cx="461" cy="112" r="5" style="fill:black" />
<circle cx="249" cy="58" r="5" style="fill:rgb(127,0,0)" />
<circle cx="324" cy="96" r="5" style="fill:black" />
<circle cx="120" cy="162" r="5" style="fill:rgb(127,0,0)" />
<circle cx="288" cy="4" r="5" style="fill:black" />
<circle cx="192" cy="3" r="5" style="fill:rgb(127,0,0)" />
<circle cx="405" cy="194" r="5" style="fill:black" />
<circle cx="127" cy="134" r="5" style="fill:rgb(127,0,0)" />
<circle cx="375" cy="50" r="5" style="fill:black" />
<circle cx="119" cy="107" r="5" style="fill:rgb(127,0,0)" />
<circle cx="362" cy="25" r="5" style="fill:black" />
<circle cx="168" cy="102" r="5" style="fill:rgb(127,0,0)" />
<circle cx="278" cy="1" r="5" style="fill:black" />
<circle cx="84" cy="16" r="5" style="fill:rgb(127,0,0)" />
<circle cx="436" cy="119" r="5" style="fill:black" />
<circle cx="27" cy="138" r="5" style="fill:rgb(127,0,0)" />
<circle cx="378" cy="252" r="5" style="fill:black" />
<circle cx="157" cy="7" r="5" style="fill:rgb(127,0,0)" />
<circle cx="410" cy="105" r="5" style="fill:black" />
<circle cx="236" cy="18" r="5" style="fill:rgb(127,0,0)" />
<circle cx="261" cy="141" r="5" style="fill:black" />
<circle cx="0" cy="113" r="5" style="fill:rgb(127,0,0)" />
<circle cx="298" cy="223" r="5" style="fill:black" />
<circle cx="214" cy="240" r="5" style="fill:rgb(127,0,0)" />
<circle cx="489" cy="139" r="5" style="fill:black" />
<circle cx="157" cy="116" r="5" style="fill:rgb(127,0,0)" />
<circle cx="443" cy="220" r="5" style="fill:black" />
<circle cx="217" cy="199" r="5" style="fill:rgb(127,0,0)" />
<circle cx="324" cy="152" r="5" style="fill:black" />
<circle cx="130" cy="221" r="5" style="fill:rgb(127,0,0)" />
<circle cx="319" cy="40" r="5" style="fill:black" />
<circle cx="212" cy="54" r="5" style="fill:rgb(127,0,0)" />
<circle cx="442" cy="164" r="5" style="fill:black" />
<circle cx="46" cy="90" r="5" style="fill:rgb(127,0,0)" />
<circle cx="438" cy="150" r="5" style="fill:black" />
<circle cx="146" cy="122" r="5" style="fill:rgb(127,0,0)" />
<circle cx="289" cy="254" r="5" style="fill:black" />
<circle cx="44" cy="194" r="5" style="fill:rgb(127,0,0)" />
<circle cx="408" cy="105" r="5" style="fill:black" />
<circle cx="2" cy="182" r="5" style="fill:rgb(127,0,0)" />
<circle cx="328" cy="61" r="5" style="fill:black" />
<circle cx="187" cy="21" r="5" style="fill:rgb(127,0,0)" />
<circle cx="350" cy="48" r="5" style="fill:black" />
<circle cx="7" cy="200" r="5" style="fill:rgb(127,0,0)" />
<circle cx="384" cy="4" r="5" style="fill:black" />
<circle cx="39" cy="223" r="5" style="fill:rgb(127,0,0)" />
<circle cx="508" cy="64" r="5" style="fill:black" />
<circle cx="153" cy="226" r="5" style="fill:rgb(127,0,0)" />
<circle cx="304" cy="187" r="5" style="fill:black" />
<circle cx="214" cy="198" r="5" style="fill:rgb(127,0,0)" />
<circle cx="440" cy="117" r="5" style="fill:black" />
<circle cx="157" cy="115" r="5" style="fill:rgb(127,0,0)" />
<circle cx="450" cy="106" r="5" style="fill:black" />
<circle cx="192" cy="3" r="5" style="fill:rgb(127,0,0)" />
<circle cx="495" cy="1" r="5" style="fill:black" />
<circle cx="184" cy="24" r="5" style="fill:rgb(127,0,0)" />
<circle cx="261" cy="20" r="5" style="fill:black" />
<circle cx="98" cy="166" r="5" style="fill:rgb(127,0,0)" />
<circle cx="459" cy="72" r="5" style="fill:black" />
<circle cx="77" cy="34" r="5" style="fill:rgb(127,0,0)" />
<circle cx="348" cy="173" r="5" style="fill:black" />
<circle cx="158" cy="239" r="5" style="fill:rgb(127,0,0)" />
<circle cx="271" cy="162" r="5" style="fill:black" />
<circle cx="241" cy="34" r="5" style="fill:rgb(127,0,0)" />
<circle cx="340" cy="60" r="5" style="fill:black" />
<circle cx="58" cy="213" r="5" style="fill:rgb(127,0,0)" />
<circle cx="507" cy="173" r="5" style="fill:black" />
<circle cx="166" cy="3" r="5" style="fill:rgb(127,0,0)" />
<circle cx="368" cy="234" r="5" style="fill:black" />
<circle cx="195" cy="104" r="5" style="fill:rgb(127,0,0)" />
<circle cx="451" cy="225" r="5" style="fill:black" />
<circle cx="44" cy="216" r="5" style="fill:rgb(127,0,0)" />
<circle cx="472" cy="150" r="5" style="fill:black" />
<circle cx="139" cy="73" r="5" style="fill:rgb(127,0,0)" />
<circle cx="435" cy="76" r="5" style="fill:black" />
<circle cx="30" cy="172" r="5" style="fill:rgb(127,0,0)" />
<circle cx="264" cy="218" r="5" style="fill:black" />
<circle cx="100" cy="58" r="5" style="fill:rgb(127,0,0)" />
<circle cx="391" cy="165" r="5" style="fill:black" />
<circle cx="247" cy="16" r="5" style="fill:rgb(127,0,0)" />
<circle cx="296" cy="188" r="5" style="fill:black" />
<circle cx="103" cy="166" r="5" style="fill:rgb(127,0,0)" />
<circle cx="493" cy="144" r="5" style="fill:black" />
<circle cx="232" cy="193" r="5" style="fill:rgb(127,0,0)" />
<circle cx="256" cy="138" r="5" style="fill:black" />
<circle cx="43" cy="12" r="5" style="fill:rgb(127,0,0)" />
<circle cx="372" cy="79" r="5" style="fill:black" />
<circle cx="222" cy="206" r="5" style="fill:rgb(127,0,0)" />
<circle cx="334" cy="157" r="5" style="fill:black" />
<circle cx="244" cy="173" r="5" style="fill:rgb(127,0,0)" />
<circle cx="487" cy="91" r="5" style="fill:black" />
<circle cx="85" cy="160" r="5" style="fill:rgb(127,0,0)" />
<circle cx="394" cy="21" r="5" style="fill:black" />
<circle cx="185" cy="51" r="5" style="fill:rgb(127,0,0)" />
<circle cx="370" cy="171" r="5" style="fill:black" />
<circle cx="190" cy="33" r="5" style="fill:rgb(127,0,0)" />
<circle cx="317" cy="6" r="5" style="fill:black" />
<circle cx="34" cy="246" r="5" style="fill:rgb(127,0,0)" />
<circle cx="438" cy="52" r="5" style="fill:black" />
<circle cx="17" cy="192" r="5" style="fill:rgb(127,0,0)" />
<circle cx="438" cy="225" r="5" style="fill:black" />
<circle cx="126" cy="76" r="5" style="fill:rgb(127,0,0)" />
<circle cx="459" cy="17" r="5" style="fill:black" />
<circle cx="36" cy="75" r="5" style="fill:rgb(127,0,0)" />
<circle cx="394" cy="244" r="5" style="fill:black" />
<circle cx="16" cy="57" r="5" style="fill:rgb(127,0,0)" />
<circle cx="500" cy="53" r="5" style="fill:black" />
<circle cx="54" cy="23" r="5" style="fill:rgb(127,0,0)" />
<circle cx="470" cy="14" r="5" style="fill:black" />
<circle cx="106" cy="71" r="5" style="fill:rgb(127,0,0)" />
<circle cx="385" cy="229" r="5" style="fill:black" />
<circle cx="210" cy="113" r="5" style="fill:rgb(127,0,0)" />
<circle cx="444" cy="219" r="5" style="fill:black" />
<circle cx="79" cy="185" r="5" style="fill:rgb(127,0,0)" />
<circle cx="467" cy="142" r="5" style="fill:black" />
<circle cx="93" cy="132" r="5" style="fill:rgb(127,0,0)" />
<circle cx="452" cy="164" r="5" style="fill:black" />
<circle cx="211" cy="38" r="5" style="fill:rgb(127,0,0)" />
<circle cx="296" cy="229" r="5" style="fill:black" />
<circle cx="236" cy="229" r="5" style="fill:rgb(127,0,0)" />
<circle cx="327" cy="9" r="5" style="fill:black" />
<circle cx="139" cy="19" r="5" style="fill:rgb(127,0,0)" />
<circle cx="295" cy="128" r="5" style="fill:black" />
<circle cx="166" cy="86" r="5" style="fill:rgb(127,0,0)" />
<circle cx="262" cy="191" r="5" style="fill:black" />
<circle cx="198" cy="18" r="5" style="fill:rgb(127,0,0)" />
<circle cx="299" cy="106" r="5" style="fill:black" />
<circle cx="97" cy="220" r="5" style="fill:rgb(127,0,0)" />
<circle cx="357" cy="84" r="5" style="fill:black" />
<circle cx="103" cy="23" r="5" style="fill:rgb(127,0,0)" />
<circle cx="429" cy="233" r="5" style="fill:black" />
<circle cx="17" cy="121" r="5" style="fill:rgb(127,0,0)" />
<circle cx="255" cy="163" r="5" style="fill:black" />
<circle cx="4" cy="59" r="5" style="fill:rgb(127,0,0)" />
<circle cx="430" cy="85" r="5" style="fill:black" />
<circle cx="199" cy="76" r="5" style="fill:rgb(127,0,0)" />
<circle cx="446" cy="33" r="5" style="fill:black" />
<circle cx="220" cy="193" r="5" style="fill:rgb(127,0,0)" />
<circle cx="290" cy="247" r="5" style="fill:black" />
<circle cx="155" cy="41" r="5" style="fill:rgb(127,0,0)" />
<circle cx="411" cy="113" r="5" style="fill:black" />
<circle cx="129" cy="75" r="5" style="fill:rgb(127,0,0)" />
<circle cx="358" cy="210" r="5" style="fill:black" />
<circle cx="233" cy="144" r="5" style="fill:rgb(127,0,0)" />
<circle cx="448" cy="84" r="5" style="fill:black" />
<circle cx="100" cy="44" r="5" style="fill:rgb(127,0,0)" />
<circle cx="396" cy="143" r="5" style="fill:black" />
<circle cx="180" cy="226" r="5" style="fill:rgb(127,0,0)" />
<circle cx="269" cy="162" r="5" style="fill:black" />
<circle cx="18" cy="23" r="5" style="fill:rgb(127,0,0)" />
<circle cx="439" cy="21" r="5" style="fill:black" />
<circle cx="251" cy="195" r="5" style="fill:rgb(127,0,0)" />
<circle cx="363" cy="150" r="5" style="fill:black" />
<circle cx="141" cy="181" r="5" style="fill:rgb(127,0,0)" />
<circle cx="496" cy="101" r="5" style="fill:black" />
<circle cx="174" cy="4" r="5" style="fill:rgb(127,0,0)" />
<circle cx="451" cy="19" r="5" style="fill:black" />
<circle cx="253" cy="223" r="5" style="fill:rgb(127,0,0)" />
<circle cx="416" cy="66" r="5" style="fill:black" />
<circle cx="197" cy="109" r="5" style="fill:rgb(127,0,0)" />
<circle cx="442" cy="201" r="5" style="fill:black" />
<circle cx="219" cy="113" r="5" style="fill:rgb(127,0,0)" />
<circle cx="284" cy="174" r="5" style="fill:black" />
<circle cx="215" cy="150" r="5" style="fill:rgb(127,0,0)" />
<circle cx="446" cy="125" r="5" style="fill:black" />
<circle cx="206" cy="106" r="5" style="fill:rgb(127,0,0)" />
<circle cx="462" cy="189" r="5" style="fill:black" />
<circle cx="6" cy="37" r="5" style="fill:rgb(127,0,0)" />
<circle cx="257" cy="27" r="5" style="fill:black" />
<circle cx="225" cy="195" r="5" style="fill:rgb(127,0,0)" />
<circle cx="282" cy="237" r="5" style="fill:black" />
<circle cx="197" cy="235" r="5" style="fill:rgb(127,0,0)" />
<circle cx="299" cy="134" r="5" style="fill:black" />
<circle cx="218" cy="233" r="5" style="fill:rgb(127,0,0)" />
<circle cx="487" cy="137" r="5" style="fill:black" />
<circle cx="230" cy="248" r="5" style="fill:rgb(127,0,0)" />
<circle cx="359" cy="57" r="5" style="fill:black" />
<circle cx="198" cy="191" r="5" style="fill:rgb(127,0,0)" />
<circle cx="453" cy="74" r="5" style="fill:black" />
<circle cx="177" cy="227" r="5" style="fill:rgb(127,0,0)" />
<circle cx="405" cy="237" r="5" style="fill:black" />
<circle cx="251" cy="155" r="5" style="fill:rgb(127,0,0)" />
<circle cx="499" cy="192" r="5" style="fill:black" />
<circle cx="102" cy="171" r="5" style="fill:rgb(127,0,0)" />
<circle cx="281" cy="218" r="5" style="fill:black" />
<circle cx="149" cy="242" r="5" style="fill:rgb(127,0,0)" />
<circle cx="284" cy="198" r="5" style="fill:black" />
<circle cx="127" cy="194" r="5" style="fill:rgb(127,0,0)" />
<circle cx="382" cy="156" r="5" style="fill:black" />
<circle cx="9" cy="218" r="5" style="fill:rgb(127,0,0)" />
<circle cx="271" cy="227" r="5" style="fill:black" />
<circle cx="111" cy="161" r="5" style="fill:rgb(127,0,0)" />
<circle cx="504" cy="166" r="5" style="fill:black" />
<circle cx="108" cy="152" r="5" style="fill:rgb(127,0,0)" />
<circle cx="263" cy="32" r="5" style="fill:black" />
<circle cx="140" cy="64" r="5" style="fill:rgb(127,0,0)" />
<circle cx="385" cy="254" r="5" style="fill:black" />
<circle cx="223" cy="163" r="5" style="fill:rgb(127,0,0)" />
<circle cx="478" cy="5" r="5" style="fill:black" />
<circle cx="74" cy="228" r="5" style="fill:rgb(127,0,0)" />
<circle cx="319" cy="45" r="5" style="fill:black" />
<circle cx="153" cy="63" r="5" style="fill:rgb(127,0,0)" />
<circle cx="457" cy="209" r="5" style="fill:black" />
<circle cx="11" cy="78" r="5" style="fill:rgb(127,0,0)" />
<circle cx="399" cy="228" r="5" style="fill:black" />
<circle cx="25" cy="177" r="5" style="fill:rgb(127,0,0)" />
<circle cx="380" cy="173" r="5" style="fill:black" />
<circle cx="109" cy="188" r="5" style="fill:rgb(127,0,0)" />
<circle cx="488" cy="240" r="5" style="fill:black" />
<circle cx="40" cy="161" r="5" style="fill:rgb(127,0,0)" />
<circle cx="399" cy="143" r="5" style="fill:black" />
<circle cx="212" cy="75" r="5" style="fill:rgb(127,0,0)" />
<circle cx="337" cy="139" r="5" style="fill:black" />
<circle cx="120" cy="131" r="5" style="fill:rgb(127,0,0)" />
<circle cx="380" cy="255" r="5" style="fill:black" />
<circle cx="24" cy="170" r="5" style="fill:rgb(127,0,0)" />
<circle cx="267" cy="58" r="5" style="fill:black" />
<circle cx="116" cy="170" r="5" style="fill:rgb(127,0,0)" />
<circle cx="264" cy="10" r="5" style="fill:black" />
<circle cx="251" cy="253" r="5" style="fill:rgb(127,0,0)" />
<circle cx="477" cy="226" r="5" style="fill:black" />
<circle cx="197" cy="124" r="5" style="fill:rgb(127,0,0)" />
<circle cx="265" cy="83" r="5" style="fill:black" />
<circle cx="186" cy="154" r="5" style="fill:rgb(127,0,0)" />
<circle cx="282" cy="91" r="5" style="fill:black" />
<circle cx="169" cy="175" r="5" style="fill:rgb(127,0,0)" />
<circle cx="468" cy="119" r="5" style="fill:black" />
<circle cx="248" cy="131" r="5" style="fill:rgb(127,0,0)" />
<circle cx="470" cy="110" r="5" style="fill:black" />
<circle cx="102" cy="121" r="5" style="fill:rgb(127,0,0)" />
<circle cx="435" cy="38" r="5" style="fill:black" />
<circle cx="128" cy="152" r="5" style="fill:rgb(127,0,0)" />
<circle cx="336" cy="243" r="5" style="fill:black" />
<circle cx="209" cy="153" r="5" style="fill:rgb(127,0,0)" />
<circle cx="413" cy="116" r="5" style="fill:black" />
<circle cx="155" cy="44" r="5" style="fill:rgb(127,0,0)" />
<circle cx="428" cy="148" r="5" style="fill:black" />
<circle cx="252" cy="60" r="5" style="fill:rgb(127,0,0)" />
<circle cx="274" cy="137" r="5" style="fill:black" />
<circle cx="89" cy="59" r="5" style="fill:rgb(127,0,0)" />
<circle cx="265" cy="177" r="5" style="fill:black" />
<circle cx="129" cy="205" r="5" style="fill:rgb(127,0,0)" />
<circle cx="391" cy="60" r="5" style="fill:black" />
<circle cx="126" cy="241" r="5" style="fill:rgb(127,0,0)" />
<circle cx="468" cy="24" r="5" style="fill:black" />
<circle cx="154" cy="228" r="5" style="fill:rgb(127,0,0)" />
<circle cx="396" cy="127" r="5" style="fill:black" />
<circle cx="13" cy="178" r="5" style="fill:rgb(127,0,0)" />
<circle cx="360" cy="174" r="5" style="fill:black" />
<circle cx="252" cy="213" r="5" style="fill:rgb(127,0,0)" />
<circle cx="461" cy="143" r="5" style="fill:black" />
<circle cx="65" cy="83" r="5" style="fill:rgb(127,0,0)" />
<circle cx="498" cy="143" r="5" style="fill:black" />
<circle cx="111" cy="190" r="5" style="fill:rgb(127,0,0)" />
<circle cx="282" cy="34" r="5" style="fill:black" />
<circle cx="3" cy="129" r="5" style="fill:rgb(127,0,0)" />
<circle cx="440" cy="35" r="5" style="fill:black" />
<circle cx="141" cy="187" r="5" style="fill:rgb(127,0,0)" />
<circle cx="424" cy="188" r="5" style="fill:black" />
<circle cx="16" cy="15" r="5" style="fill:rgb(127,0,0)" />
<circle cx="286" cy="255" r="5" style="fill:black" />
<circle cx="241" cy="111" r="5" style="fill:rgb(127,0,0)" />
<circle cx="494" cy="87" r="5" style="fill:black" />
<circle cx="194" cy="108" r="5" style="fill:rgb(127,0,0)" />
<circle cx="428" cy="110" r="5" style="fill:black" />
<circle cx="61" cy="206" r="5" style="fill:rgb(127,0,0)" />
<circle cx="300" cy="165" r="5" style="fill:black" />
<circle cx="88" cy="151" r="5" style="fill:rgb(127,0,0)" />
<circle cx="509" cy="124" r="5" style="fill:black" />
<circle cx="53" cy="10" r="5" style="fill:rgb(127,0,0)" />
<circle cx="488" cy="251" r="5" style="fill:black" />
<circle cx="248" cy="237" r="5" style="fill:rgb(127,0,0)" />
<circle cx="440" cy="238" r="5" style="fill:black" />
<circle cx="108" cy="76" r="5" style="fill:rgb(127,0,0)" />
<circle cx="508" cy="40" r="5" style="fill:black" />
<circle cx="165" cy="69" r="5" style="fill:rgb(127,0,0)" />
<circle cx="377" cy="59" r="5" style="fill:black" />
<circle cx="93" cy="160" r="5" style="fill:rgb(127,0,0)" />
<circle cx="273" cy="212" r="5" style="fill:black" />
<circle cx="23" cy="157" r="5" style="fill:rgb(127,0,0)" />
<circle cx="314" cy="74" r="5" style="fill:black" />
<circle cx="131" cy="225" r="5" style="fill:rgb(127,0,0)" />
<circle cx="454" cy="9" r="5" style="fill:black" />
<circle cx="124" cy="65" r="5" style="fill:rgb(127,0,0)" />
<circle cx="403" cy="73" r="5" style="fill:black" />
<circle cx="199" cy="156" r="5" style="fill:rgb(127,0,0)" />
<circle cx="367" cy="88" r="5" style="fill:black" />
<circle cx="21" cy="81" r="5" style="fill:rgb(127,0,0)" />
<circle cx="310" cy="111" r="5" style="fill:black" />
<circle cx="159" cy="18" r="5" style="fill:rgb(127,0,0)" />
<circle cx="453" cy="178" r="5" style="fill:black" />
<circle cx="178" cy="66" r="5" style="fill:rgb(127,0,0)" />
<circle cx="396" cy="91" r="5" style="fill:black" />
<circle cx="11" cy="109" r="5" style="fill:rgb(127,0,0)" />
<circle cx="334" cy="188" r="5" style="fill:black" />
<circle cx="243" cy="248" r="5" style="fill:rgb(127,0,0)" />
<circle cx="439" cy="70" r="5" style="fill:black" />
<circle cx="73" cy="160" r="5" style="fill:rgb(127,0,0)" />
<circle cx="329" cy="253" r="5" style="fill:black" />
<circle cx="233" cy="84" r="5" style="fill:rgb(127,0,0)" />
<circle cx="401" cy="183" r="5" style="fill:black" />
<circle cx="247" cy="160" r="5" style="fill:rgb(127,0,0)" />
<circle cx="355" cy="169" r="5" style="fill:black" />
<circle cx="20" cy="247" r="5" style="fill:rgb(127,0,0)" />
<circle cx="476" cy="96" r="5" style="fill:black" />
<circle cx="197" cy="169" r="5" style="fill:rgb(127,0,0)" />
<circle cx="320" cy="117" r="5" style="fill:black" />
<circle cx="1" cy="124" r="5" style="fill:rgb(127,0,0)" />
<circle cx="285" cy="73" r="5" style="fill:black" />
<circle cx="177" cy="162" r="5" style="fill:rgb(127,0,0)" />
<circle cx="438" cy="200" r="5" style="fill:black" />
<circle cx="207" cy="147" r="5" style="fill:rgb(127,0,0)" />
<circle cx="494" cy="83" r="5" style="fill:black" />
<circle cx="80" cy="79" r="5" style="fill:rgb(127,0,0)" />
<circle cx="423" cy="34" r="5" style="fill:black" />
<circle cx="143" cy="215" r="5" style="fill:rgb(127,0,0)" />
<circle cx="419" cy="200" r="5" style="fill:black" />
<circle cx="190" cy="198" r="5" style="fill:rgb(127,0,0)" />
<circle cx="306" cy="77" r="5" style="fill:black" />
<circle cx="19" cy="231" r="5" style="fill:rgb(127,0,0)" />
<circle cx="311" cy="24" r="5" style="fill:black" />
<circle cx="90" cy="91" r="5" style="fill:rgb(127,0,0)" />
<circle cx="351" cy="195" r="5" style="fill:black" />
<circle cx="126" cy="86" r="5" style="fill:rgb(127,0,0)" />
<circle cx="352" cy="220" r="5" style="fill:black" />
<circle cx="219" cy="168" r="5" style="fill:rgb(127,0,0)" />
<circle cx="487" cy="31" r="5" style="fill:black" />
<circle cx="25" cy="39" r="5" style="fill:rgb(127,0,0)" />
<circle cx="453" cy="81" r="5" style="fill:black" />
<circle cx="29" cy="129" r="5" style="fill:rgb(127,0,0)" />
<circle cx="292" cy="253" r="5" style="fill:black" />
<circle cx="124" cy="185" r="5" style="fill:rgb(127,0,0)" />
<circle cx="365" cy="254" r="5" style="fill:black" />
<circle cx="22" cy="27" r="5" style="fill:rgb(127,0,0)" />
<circle cx="389" cy="58" r="5" style="fill:black" />
<circle cx="147" cy="20" r="5" style="fill:rgb(127,0,0)" />
<circle cx="275" cy="162" r="5" style="fill:black" />
<circle cx="217" cy="94" r="5" style="fill:rgb(127,0,0)" />
<circle cx="291" cy="23" r="5" style="fill:black" />
<circle cx="202" cy="12" r="5" style="fill:rgb(127,0,0)" />
<circle cx="280" cy="240" r="5" style="fill:black" />
<circle cx="29" cy="205" r="5" style="fill:rgb(127,0,0)" />
<circle cx="324" cy="248" r="5" style="fill:black" />
<circle cx="21" cy="72" r="5" style="fill:rgb(127,0,0)" />
<circle cx="332" cy="25" r="5" style="fill:black" />
<circle cx="12" cy="247" r="5" style="fill:rgb(127,0,0)" />
<circle cx="508" cy="197" r="5" style="fill:black" />
<circle cx="36" cy="187" r="5" style="fill:rgb(127,0,0)" />
<circle cx="484" cy="96" r="5" style="fill:black" />
<circle cx="231" cy="198" r="5" style="fill:rgb(127,0,0)" />
<circle cx="416" cy="118" r="5" style="fill:black" />
<circle cx="154" cy="233" r="5" style="fill:rgb(127,0,0)" />
<circle cx="347" cy="173" r="5" style="fill:black" />
<circle cx="152" cy="218" r="5" style="fill:rgb(127,0,0)" />
<circle cx="414" cy="21" r="5" style="fill:black" />
<circle cx="231" cy="90" r="5" style="fill:rgb(127,0,0)" />
<circle cx="314" cy="188" r="5" style="fill:black" />
<circle cx="161" cy="244" r="5" style="fill:rgb(127,0,0)" />
<circle cx="423" cy="240" r="5" style="fill:black" />
<circle cx="249" cy="193" r="5" style="fill:rgb(127,0,0)" />
<circle cx="423" cy="153" r="5" style="fill:black" />
<circle cx="132" cy="151" r="5" style="fill:rgb(127,0,0)" />
<circle cx="331" cy="223" r="5" style="fill:black" />
<circle cx="198" cy="70" r="5" style="fill:rgb(127,0,0)" />
<circle cx="504" cy="200" r="5" style="fill:black" />
<circle cx="182" cy="51" r="5" style="fill:rgb(127,0,0)" />
<circle cx="412" cy="147" r="5" style="fill:black" />
<circle cx="86" cy="49" r="5" style="fill:rgb(127,0,0)" />
<circle cx="432" cy="55" r="5" style="fill:black" />
<circle cx="62" cy="127" r="5" style="fill:rgb(127,0,0)" />
<circle cx="290" cy="6" r="5" style="fill:black" />
<circle cx="149" cy="191" r="5" style="fill:rgb(127,0,0)" />
<circle cx="450" cy="76" r="5" style="fill:black" />
<circle cx="118" cy="29" r="5" style="fill:rgb(127,0,0)" />
<circle cx="298" cy="145" r="5" style="fill:black" />
<circle cx="20" cy="104" r="5" style="fill:rgb(127,0,0)" />
<circle cx="305" cy="88" r="5" style="fill:black" />
<circle cx="55" cy="18" r="5" style="fill:rgb(127,0,0)" />
<circle cx="351" cy="223" r="5" style="fill:black" />
<circle cx="100" cy="212" r="5" style="fill:rgb(127,0,0)" />
<circle cx="319" cy="69" r="5" style="fill:black" />
<circle cx="54" cy="136" r="5" style="fill:rgb(127,0,0)" />
<circle cx="472" cy="125" r="5" style="fill:black" />
<circle cx="155" cy="142" r="5" style="fill:rgb(127,0,0)" />
<circle cx="394" cy="255" r="5" style="fill:black" />
<circle cx="113" cy="31" r="5" style="fill:rgb(127,0,0)" />
<circle cx="446" cy="231" r="5" style="fill:black" />
<circle cx="249" cy="92" r="5" style="fill:rgb(127,0,0)" />
<circle cx="407" cy="232" r="5" style="fill:black" />
<circle cx="232" cy="215" r="5" style="fill:rgb(127,0,0)" />
<circle cx="399" cy="205" r="5" style="fill:black" />
<circle cx="96" cy="173" r="5" style="fill:rgb(127,0,0)" />
<circle cx="497" cy="17" r="5" style="fill:black" />
<circle cx="186" cy="64" r="5" style="fill:rgb(127,0,0)" />
<circle cx="329" cy="90" r="5" style="fill:black" />
<circle cx="237" cy="162" r="5" style="fill:rgb(127,0,0)" />
<circle cx="360" cy="128" r="5" style="fill:black" />
<circle cx="118" cy="122" r="5" style="fill:rgb(127,0,0)" />
<circle cx="283" cy="227" r="5" style="fill:black" />
<circle cx="61" cy="35" r="5" style="fill:rgb(127,0,0)" />
<circle cx="395" cy="46" r="5" style="fill:black" />
<circle cx="210" cy="125" r="5" style="fill:rgb(127,0,0)" />
<circle cx="400" cy="81" r="5" style="fill:black" />
<circle cx="77" cy="145" r="5" style="fill:rgb(127,0,0)" />
<circle cx="461" cy="7" r="5" style="fill:black" />
<circle cx="202" cy="227" r="5" style="fill:rgb(127,0,0)" />
<circle cx="383" cy="136" r="5" style="fill:black" />
<circle cx="129" cy="163" r="5" style="fill:rgb(127,0,0)" />
<circle cx="257" cy="151" r="5" style="fill:black" />
<circle cx="93" cy="239" r="5" style="fill:rgb(127,0,0)" />
<circle cx="261" cy="144" r="5" style="fill:black" />
<circle cx="128" cy="212" r="5" style="fill:rgb(127,0,0)" />
<circle cx="337" cy="196" r="5" style="fill:black" />
<circle cx="196" cy="192" r="5" style="fill:rgb(127,0,0)" />
<circle cx="380" cy="222" r="5" style="fill:black" />
<circle cx="203" cy="21" r="5" style="fill:rgb(127,0,0)" />
<circle cx="307" cy="116" r="5" style="fill:black" />
<circle cx="179" cy="247" r="5" style="fill:rgb(127,0,0)" />
<circle cx="445" cy="127" r="5" style="fill:black" />
<circle cx="218" cy="137" r="5" style="fill:rgb(127,0,0)" />
<circle cx="268" cy="3" r="5" style="fill:black" />
<circle cx="253" cy="28" r="5" style="fill:rgb(127,0,0)" />
<circle cx="339" cy="79" r="5" style="fill:black" />
<circle cx="64" cy="77" r="5" style="fill:rgb(127,0,0)" />
<circle cx="465" cy="214" r="5" style="fill:black" />
<circle cx="247" cy="120" r="5" style="fill:rgb(127,0,0)" />
<circle cx="354" cy="173" r="5" style="fill:black" />
<circle cx="177" cy="74" r="5" style="fill:rgb(127,0,0)" />
<circle cx="414" cy="7" r="5" style="fill:black" />
<circle cx="127" cy="15" r="5" style="fill:rgb(127,0,0)" />
<circle cx="405" cy="153" r="5" style="fill:black" />
<circle cx="128" cy="221" r="5" style="fill:rgb(127,0,0)" />
<circle cx="366" cy="249" r="5" style="fill:black" />
<circle cx="30" cy="17" r="5" style="fill:rgb(127,0,0)" />
<circle cx="448" cy="76" r="5" style="fill:black" />
<circle cx="204" cy="202" r="5" style="fill:rgb(127,0,0)" />
<circle cx="472" cy="244" r="5" style="fill:black" />
<circle cx="110" cy="86" r="5" style="fill:rgb(127,0,0)" />
<circle cx="362" cy="97" r="5" style="fill:black" />
<circle cx="249" cy="3" r="5" style="fill:rgb(127,0,0)" />
<circle cx="291" cy="216" r="5" style="fill:black" />
<circle cx="98" cy="99" r="5" style="fill:rgb(127,0,0)" />
<circle cx="422" cy="238" r="5" style="fill:black" />
<circle cx="4" cy="107" r="5" style="fill:rgb(127,0,0)" />
<circle cx="359" cy="246" r="5" style="fill:black" />
<circle cx="28" cy="144" r="5" style="fill:rgb(127,0,0)" />
<circle cx="361" cy="226" r="5" style="fill:black" />
<circle cx="83" cy="89" r="5" style="fill:rgb(127,0,0)" />
<circle cx="500" cy="101" r="5" style="fill:black" />
<circle cx="110" cy="24" r="5" style="fill:rgb(127,0,0)" />
<circle cx="338" cy="179" r="5" style="fill:black" />
<circle cx="204" cy="189" r="5" style="fill:rgb(127,0,0)" />
<circle cx="413" cy="24" r="5" style="fill:black" />
<circle cx="36" cy="39" r="5" style="fill:rgb(127,0,0)" />
<circle cx="262" cy="59" r="5" style="fill:black" />
<circle cx="81" cy="191" r="5" style="fill:rgb(127,0,0)" />
<circle cx="502" cy="243" r="5" style="fill:black" />
<circle cx="103" cy="76" r="5" style="fill:rgb(127,0,0)" />
<circle cx="335" cy="112" r="5" style="fill:black" />
<circle cx="57" cy="38" r="5" style="fill:rgb(127,0,0)" />
<circle cx="384" cy="185" r="5" style="fill:black" />
<circle cx="182" cy="19" r="5" style="fill:rgb(127,0,0)" />
<circle cx="381" cy="153" r="5" style="fill:black" />
<circle cx="240" cy="248" r="5" style="fill:rgb(127,0,0)" />
<circle cx="473" cy="31" r="5" style="fill:black" />
<circle cx="49" cy="224" r="5" style="fill:rgb(127,0,0)" />
<circle cx="265" cy="26" r="5" style="fill:black" />
<circle cx="138" cy="139" r="5" style="fill:rgb(127,0,0)" />
<circle cx="334" cy="33" r="5" style="fill:black" />
<circle cx="2" cy="176" r="5" style="fill:rgb(127,0,0)" />
<circle cx="456" cy="120" r="5" style="fill:black" />
<circle cx="57" cy="103" r="5" style="fill:rgb(127,0,0)" />
<circle cx="481" cy="21" r="5" style="fill:black" />
<circle cx="73" cy="87" r="5" style="fill:rgb(127,0,0)" />
<circle cx="373" cy="45" r="5" style="fill:black" />
<circle cx="129" cy="220" r="5" style="fill:rgb(127,0,0)" />
<circle cx="430" cy="78" r="5" style="fill:black" />
<circle cx="142" cy="26" r="5" style="fill:rgb(127,0,0)" />
<circle cx="379" cy="216" r="5" style="fill:black" />
<circle cx="133" cy="113" r="5" style="fill:rgb(127,0,0)" />
<circle cx="334" cy="24" r="5" style="fill:black" />
<circle cx="109" cy="91" r="5" style="fill:rgb(127,0,0)" />
<circle cx="487" cy="84" r="5" style="fill:black" />
<circle cx="79" cy="62" r="5" style="fill:rgb(127,0,0)" />
<circle cx="489" cy="112" r="5" style="fill:black" />
</g>
<desc>Legends</desc>
<g style="text-anchor:middle; font-size:18; font-family:Calibri">
<text x="128" y="280"  >Go rand package</text>
<text x="384" y="280" >/dev/urandom</text>
<text x="256" y="280" style="font-size:12" >n=256</text>
</g>
</svg>
