<?xml version="1.0"?>
<!-- Generated by SVGo -->
<svg width="500" height="500"
     xmlns="http://www.w3.org/2000/svg"
     xmlns:xlink="http://www.w3.org/1999/xlink">
<title>Example of feTurbulence</title>
<defs>
<filter id="Turb1" >
<feTurbulence  type="turbulence" baseFrequency="0.05 0.05" numOctaves="2" seed="0" stitchTiles="noStitch" />
</filter>
<filter id="Turb2" >
<feTurbulence  type="turbulence" baseFrequency="0.10 0.10" numOctaves="2" seed="0" stitchTiles="noStitch" />
</filter>
<filter id="Turb3" >
<feTurbulence  type="turbulence" baseFrequency="0.05 0.05" numOctaves="8" seed="0" stitchTiles="noStitch" />
</filter>
<filter id="Turb4" >
<feTurbulence  type="fractalNoise" baseFrequency="0.10 0.10" numOctaves="4" seed="0" stitchTiles="noStitch" />
</filter>
<filter id="Turb5" >
<feTurbulence  type="fractalNoise" baseFrequency="0.40 0.40" numOctaves="4" seed="0" stitchTiles="noStitch" />
</filter>
<filter id="Turb6" >
<feTurbulence  type="fractalNoise" baseFrequency="0.10 0.10" numOctaves="1" seed="0" stitchTiles="noStitch" />
</filter>
</defs>
<g style="font-size:10;font-family:Verdana;text-anchor:middle">
<rect x="25" y="25" width="100" height="75" filter="url(#Turb1)" />
<text x="75" y="125" >type=t</text>
<text x="75" y="140" >baseFrequency=0.05</text>
<text x="75" y="155" >numOctaves=2</text>
<rect x="175" y="25" width="100" height="75" filter="url(#Turb2)" />
<text x="225" y="125" >type=t</text>
<text x="225" y="140" >baseFrequency=0.10</text>
<text x="225" y="155" >numOctaves=2</text>
<rect x="325" y="25" width="100" height="75" filter="url(#Turb3)" />
<text x="375" y="125" >type=t</text>
<text x="375" y="140" >baseFrequency=0.05</text>
<text x="375" y="155" >numOctaves=8</text>
<rect x="25" y="180" width="100" height="75" filter="url(#Turb4)" />
<text x="75" y="280" >type=f</text>
<text x="75" y="295" >baseFrequency=0.10</text>
<text x="75" y="310" >numOctaves=4</text>
<rect x="175" y="180" width="100" height="75" filter="url(#Turb5)" />
<text x="225" y="280" >type=f</text>
<text x="225" y="295" >baseFrequency=0.40</text>
<text x="225" y="310" >numOctaves=4</text>
<rect x="325" y="180" width="100" height="75" filter="url(#Turb6)" />
<text x="375" y="280" >type=f</text>
<text x="375" y="295" >baseFrequency=0.10</text>
<text x="375" y="310" >numOctaves=1</text>
</g>
</svg>
