<?xml version="1.0"?>
<!-- Generated by SVGo -->
<svg width="768" height="128"
     xmlns="http://www.w3.org/2000/svg"
     xmlns:xlink="http://www.w3.org/1999/xlink">
<title>Image Fade</title>
<image x="0" y="0" width="128" height="128" xlink:href="../../gophercolor128x128.png" style="opacity:1.00" />
<image x="100" y="0" width="128" height="128" xlink:href="../../gophercolor128x128.png" style="opacity:0.90" />
<image x="200" y="0" width="128" height="128" xlink:href="../../gophercolor128x128.png" style="opacity:0.80" />
<image x="300" y="0" width="128" height="128" xlink:href="../../gophercolor128x128.png" style="opacity:0.70" />
<image x="400" y="0" width="128" height="128" xlink:href="../../gophercolor128x128.png" style="opacity:0.60" />
<image x="500" y="0" width="128" height="128" xlink:href="../../gophercolor128x128.png" style="opacity:0.50" />
<image x="600" y="0" width="128" height="128" xlink:href="../../gophercolor128x128.png" style="opacity:0.40" />
<g style="stroke:gray; opacity:0.2">
<line x1="0" y1="0" x2="0" y2="128" />
<line x1="16" y1="0" x2="16" y2="128" />
<line x1="32" y1="0" x2="32" y2="128" />
<line x1="48" y1="0" x2="48" y2="128" />
<line x1="64" y1="0" x2="64" y2="128" />
<line x1="80" y1="0" x2="80" y2="128" />
<line x1="96" y1="0" x2="96" y2="128" />
<line x1="112" y1="0" x2="112" y2="128" />
<line x1="128" y1="0" x2="128" y2="128" />
<line x1="144" y1="0" x2="144" y2="128" />
<line x1="160" y1="0" x2="160" y2="128" />
<line x1="176" y1="0" x2="176" y2="128" />
<line x1="192" y1="0" x2="192" y2="128" />
<line x1="208" y1="0" x2="208" y2="128" />
<line x1="224" y1="0" x2="224" y2="128" />
<line x1="240" y1="0" x2="240" y2="128" />
<line x1="256" y1="0" x2="256" y2="128" />
<line x1="272" y1="0" x2="272" y2="128" />
<line x1="288" y1="0" x2="288" y2="128" />
<line x1="304" y1="0" x2="304" y2="128" />
<line x1="320" y1="0" x2="320" y2="128" />
<line x1="336" y1="0" x2="336" y2="128" />
<line x1="352" y1="0" x2="352" y2="128" />
<line x1="368" y1="0" x2="368" y2="128" />
<line x1="384" y1="0" x2="384" y2="128" />
<line x1="400" y1="0" x2="400" y2="128" />
<line x1="416" y1="0" x2="416" y2="128" />
<line x1="432" y1="0" x2="432" y2="128" />
<line x1="448" y1="0" x2="448" y2="128" />
<line x1="464" y1="0" x2="464" y2="128" />
<line x1="480" y1="0" x2="480" y2="128" />
<line x1="496" y1="0" x2="496" y2="128" />
<line x1="512" y1="0" x2="512" y2="128" />
<line x1="528" y1="0" x2="528" y2="128" />
<line x1="544" y1="0" x2="544" y2="128" />
<line x1="560" y1="0" x2="560" y2="128" />
<line x1="576" y1="0" x2="576" y2="128" />
<line x1="592" y1="0" x2="592" y2="128" />
<line x1="608" y1="0" x2="608" y2="128" />
<line x1="624" y1="0" x2="624" y2="128" />
<line x1="640" y1="0" x2="640" y2="128" />
<line x1="656" y1="0" x2="656" y2="128" />
<line x1="672" y1="0" x2="672" y2="128" />
<line x1="688" y1="0" x2="688" y2="128" />
<line x1="704" y1="0" x2="704" y2="128" />
<line x1="720" y1="0" x2="720" y2="128" />
<line x1="736" y1="0" x2="736" y2="128" />
<line x1="752" y1="0" x2="752" y2="128" />
<line x1="768" y1="0" x2="768" y2="128" />
<line x1="0" y1="0" x2="768" y2="0" />
<line x1="0" y1="16" x2="768" y2="16" />
<line x1="0" y1="32" x2="768" y2="32" />
<line x1="0" y1="48" x2="768" y2="48" />
<line x1="0" y1="64" x2="768" y2="64" />
<line x1="0" y1="80" x2="768" y2="80" />
<line x1="0" y1="96" x2="768" y2="96" />
<line x1="0" y1="112" x2="768" y2="112" />
<line x1="0" y1="128" x2="768" y2="128" />
</g>
</svg>
