<?xml version="1.0"?>
<!-- Generated by SVGo -->
<svg width="200" height="200"
     xmlns="http://www.w3.org/2000/svg"
     xmlns:xlink="http://www.w3.org/1999/xlink">
<title>Random Lines</title>
<rect x="0" y="0" width="200" height="200" style="fill:black" />
<g style="stroke-width:10">
<line x1="0" y1="0" x2="99" y2="200" style="stroke:rgb(125,125,125); opacity:0.39" />
<line x1="1" y1="0" x2="48" y2="200" style="stroke:rgb(254,254,254); opacity:0.39" />
<line x1="2" y1="0" x2="198" y2="200" style="stroke:rgb(216,216,216); opacity:0.39" />
<line x1="3" y1="0" x2="156" y2="200" style="stroke:rgb(21,21,21); opacity:0.39" />
<line x1="4" y1="0" x2="97" y2="200" style="stroke:rgb(217,217,217); opacity:0.39" />
<line x1="5" y1="0" x2="53" y2="200" style="stroke:rgb(176,176,176); opacity:0.39" />
<line x1="6" y1="0" x2="183" y2="200" style="stroke:rgb(10,10,10); opacity:0.39" />
<line x1="7" y1="0" x2="117" y2="200" style="stroke:rgb(22,22,22); opacity:0.39" />
<line x1="8" y1="0" x2="102" y2="200" style="stroke:rgb(165,165,165); opacity:0.39" />
<line x1="9" y1="0" x2="124" y2="200" style="stroke:rgb(143,143,143); opacity:0.39" />
<line x1="10" y1="0" x2="84" y2="200" style="stroke:rgb(97,97,97); opacity:0.39" />
<line x1="11" y1="0" x2="151" y2="200" style="stroke:rgb(240,240,240); opacity:0.39" />
<line x1="12" y1="0" x2="118" y2="200" style="stroke:rgb(143,143,143); opacity:0.39" />
<line x1="13" y1="0" x2="112" y2="200" style="stroke:rgb(48,48,48); opacity:0.39" />
<line x1="14" y1="0" x2="85" y2="200" style="stroke:rgb(116,116,116); opacity:0.39" />
<line x1="15" y1="0" x2="174" y2="200" style="stroke:rgb(122,122,122); opacity:0.39" />
<line x1="16" y1="0" x2="103" y2="200" style="stroke:rgb(204,204,204); opacity:0.39" />
<line x1="17" y1="0" x2="189" y2="200" style="stroke:rgb(199,199,199); opacity:0.39" />
<line x1="18" y1="0" x2="199" y2="200" style="stroke:rgb(118,118,118); opacity:0.39" />
<line x1="19" y1="0" x2="99" y2="200" style="stroke:rgb(191,191,191); opacity:0.39" />
<line x1="20" y1="0" x2="114" y2="200" style="stroke:rgb(99,99,99); opacity:0.39" />
<line x1="21" y1="0" x2="85" y2="200" style="stroke:rgb(234,234,234); opacity:0.39" />
<line x1="22" y1="0" x2="180" y2="200" style="stroke:rgb(194,194,194); opacity:0.39" />
<line x1="23" y1="0" x2="123" y2="200" style="stroke:rgb(179,179,179); opacity:0.39" />
<line x1="24" y1="0" x2="127" y2="200" style="stroke:rgb(239,239,239); opacity:0.39" />
<line x1="25" y1="0" x2="157" y2="200" style="stroke:rgb(42,42,42); opacity:0.39" />
<line x1="26" y1="0" x2="115" y2="200" style="stroke:rgb(156,156,156); opacity:0.39" />
<line x1="27" y1="0" x2="151" y2="200" style="stroke:rgb(197,197,197); opacity:0.39" />
<line x1="28" y1="0" x2="98" y2="200" style="stroke:rgb(167,167,167); opacity:0.39" />
<line x1="29" y1="0" x2="71" y2="200" style="stroke:rgb(36,36,36); opacity:0.39" />
<line x1="30" y1="0" x2="24" y2="200" style="stroke:rgb(184,184,184); opacity:0.39" />
<line x1="31" y1="0" x2="87" y2="200" style="stroke:rgb(122,122,122); opacity:0.39" />
<line x1="32" y1="0" x2="160" y2="200" style="stroke:rgb(88,88,88); opacity:0.39" />
<line x1="33" y1="0" x2="180" y2="200" style="stroke:rgb(40,40,40); opacity:0.39" />
<line x1="34" y1="0" x2="160" y2="200" style="stroke:rgb(72,72,72); opacity:0.39" />
<line x1="35" y1="0" x2="129" y2="200" style="stroke:rgb(14,14,14); opacity:0.39" />
<line x1="36" y1="0" x2="34" y2="200" style="stroke:rgb(205,205,205); opacity:0.39" />
<line x1="37" y1="0" x2="174" y2="200" style="stroke:rgb(57,57,57); opacity:0.39" />
<line x1="38" y1="0" x2="190" y2="200" style="stroke:rgb(74,74,74); opacity:0.39" />
<line x1="39" y1="0" x2="153" y2="200" style="stroke:rgb(129,129,129); opacity:0.39" />
<line x1="40" y1="0" x2="188" y2="200" style="stroke:rgb(4,4,4); opacity:0.39" />
<line x1="41" y1="0" x2="51" y2="200" style="stroke:rgb(116,116,116); opacity:0.39" />
<line x1="42" y1="0" x2="38" y2="200" style="stroke:rgb(65,65,65); opacity:0.39" />
<line x1="43" y1="0" x2="22" y2="200" style="stroke:rgb(150,150,150); opacity:0.39" />
<line x1="44" y1="0" x2="126" y2="200" style="stroke:rgb(136,136,136); opacity:0.39" />
<line x1="45" y1="0" x2="176" y2="200" style="stroke:rgb(103,103,103); opacity:0.39" />
<line x1="46" y1="0" x2="155" y2="200" style="stroke:rgb(75,75,75); opacity:0.39" />
<line x1="47" y1="0" x2="123" y2="200" style="stroke:rgb(74,74,74); opacity:0.39" />
<line x1="48" y1="0" x2="144" y2="200" style="stroke:rgb(253,253,253); opacity:0.39" />
<line x1="49" y1="0" x2="192" y2="200" style="stroke:rgb(74,74,74); opacity:0.39" />
<line x1="50" y1="0" x2="128" y2="200" style="stroke:rgb(101,101,101); opacity:0.39" />
<line x1="51" y1="0" x2="88" y2="200" style="stroke:rgb(42,42,42); opacity:0.39" />
<line x1="52" y1="0" x2="125" y2="200" style="stroke:rgb(111,111,111); opacity:0.39" />
<line x1="53" y1="0" x2="37" y2="200" style="stroke:rgb(206,206,206); opacity:0.39" />
<line x1="54" y1="0" x2="16" y2="200" style="stroke:rgb(89,89,89); opacity:0.39" />
<line x1="55" y1="0" x2="163" y2="200" style="stroke:rgb(81,81,81); opacity:0.39" />
<line x1="56" y1="0" x2="177" y2="200" style="stroke:rgb(114,114,114); opacity:0.39" />
<line x1="57" y1="0" x2="97" y2="200" style="stroke:rgb(103,103,103); opacity:0.39" />
<line x1="58" y1="0" x2="157" y2="200" style="stroke:rgb(62,62,62); opacity:0.39" />
<line x1="59" y1="0" x2="39" y2="200" style="stroke:rgb(199,199,199); opacity:0.39" />
<line x1="60" y1="0" x2="117" y2="200" style="stroke:rgb(232,232,232); opacity:0.39" />
<line x1="61" y1="0" x2="36" y2="200" style="stroke:rgb(208,208,208); opacity:0.39" />
<line x1="62" y1="0" x2="113" y2="200" style="stroke:rgb(194,194,194); opacity:0.39" />
<line x1="63" y1="0" x2="83" y2="200" style="stroke:rgb(3,3,3); opacity:0.39" />
<line x1="64" y1="0" x2="1" y2="200" style="stroke:rgb(107,107,107); opacity:0.39" />
<line x1="65" y1="0" x2="199" y2="200" style="stroke:rgb(75,75,75); opacity:0.39" />
<line x1="66" y1="0" x2="185" y2="200" style="stroke:rgb(231,231,231); opacity:0.39" />
<line x1="67" y1="0" x2="69" y2="200" style="stroke:rgb(140,140,140); opacity:0.39" />
<line x1="68" y1="0" x2="100" y2="200" style="stroke:rgb(197,197,197); opacity:0.39" />
<line x1="69" y1="0" x2="152" y2="200" style="stroke:rgb(90,90,90); opacity:0.39" />
<line x1="70" y1="0" x2="73" y2="200" style="stroke:rgb(16,16,16); opacity:0.39" />
<line x1="71" y1="0" x2="12" y2="200" style="stroke:rgb(237,237,237); opacity:0.39" />
<line x1="72" y1="0" x2="85" y2="200" style="stroke:rgb(136,136,136); opacity:0.39" />
<line x1="73" y1="0" x2="172" y2="200" style="stroke:rgb(232,232,232); opacity:0.39" />
<line x1="74" y1="0" x2="140" y2="200" style="stroke:rgb(248,248,248); opacity:0.39" />
<line x1="75" y1="0" x2="25" y2="200" style="stroke:rgb(77,77,77); opacity:0.39" />
<line x1="76" y1="0" x2="49" y2="200" style="stroke:rgb(174,174,174); opacity:0.39" />
<line x1="77" y1="0" x2="90" y2="200" style="stroke:rgb(240,240,240); opacity:0.39" />
<line x1="78" y1="0" x2="48" y2="200" style="stroke:rgb(110,110,110); opacity:0.39" />
<line x1="79" y1="0" x2="25" y2="200" style="stroke:rgb(199,199,199); opacity:0.39" />
<line x1="80" y1="0" x2="17" y2="200" style="stroke:rgb(160,160,160); opacity:0.39" />
<line x1="81" y1="0" x2="33" y2="200" style="stroke:rgb(97,97,97); opacity:0.39" />
<line x1="82" y1="0" x2="96" y2="200" style="stroke:rgb(158,158,158); opacity:0.39" />
<line x1="83" y1="0" x2="114" y2="200" style="stroke:rgb(134,134,134); opacity:0.39" />
<line x1="84" y1="0" x2="151" y2="200" style="stroke:rgb(97,97,97); opacity:0.39" />
<line x1="85" y1="0" x2="94" y2="200" style="stroke:rgb(127,127,127); opacity:0.39" />
<line x1="86" y1="0" x2="127" y2="200" style="stroke:rgb(68,68,68); opacity:0.39" />
<line x1="87" y1="0" x2="111" y2="200" style="stroke:rgb(184,184,184); opacity:0.39" />
<line x1="88" y1="0" x2="42" y2="200" style="stroke:rgb(164,164,164); opacity:0.39" />
<line x1="89" y1="0" x2="166" y2="200" style="stroke:rgb(243,243,243); opacity:0.39" />
<line x1="90" y1="0" x2="91" y2="200" style="stroke:rgb(155,155,155); opacity:0.39" />
<line x1="91" y1="0" x2="155" y2="200" style="stroke:rgb(4,4,4); opacity:0.39" />
<line x1="92" y1="0" x2="40" y2="200" style="stroke:rgb(111,111,111); opacity:0.39" />
<line x1="93" y1="0" x2="20" y2="200" style="stroke:rgb(16,16,16); opacity:0.39" />
<line x1="94" y1="0" x2="92" y2="200" style="stroke:rgb(227,227,227); opacity:0.39" />
<line x1="95" y1="0" x2="28" y2="200" style="stroke:rgb(23,23,23); opacity:0.39" />
<line x1="96" y1="0" x2="73" y2="200" style="stroke:rgb(116,116,116); opacity:0.39" />
<line x1="97" y1="0" x2="137" y2="200" style="stroke:rgb(223,223,223); opacity:0.39" />
<line x1="98" y1="0" x2="82" y2="200" style="stroke:rgb(118,118,118); opacity:0.39" />
<line x1="99" y1="0" x2="15" y2="200" style="stroke:rgb(196,196,196); opacity:0.39" />
<line x1="100" y1="0" x2="51" y2="200" style="stroke:rgb(252,252,252); opacity:0.39" />
<line x1="101" y1="0" x2="114" y2="200" style="stroke:rgb(20,20,20); opacity:0.39" />
<line x1="102" y1="0" x2="66" y2="200" style="stroke:rgb(188,188,188); opacity:0.39" />
<line x1="103" y1="0" x2="83" y2="200" style="stroke:rgb(81,81,81); opacity:0.39" />
<line x1="104" y1="0" x2="50" y2="200" style="stroke:rgb(14,14,14); opacity:0.39" />
<line x1="105" y1="0" x2="1" y2="200" style="stroke:rgb(28,28,28); opacity:0.39" />
<line x1="106" y1="0" x2="19" y2="200" style="stroke:rgb(198,198,198); opacity:0.39" />
<line x1="107" y1="0" x2="87" y2="200" style="stroke:rgb(63,63,63); opacity:0.39" />
<line x1="108" y1="0" x2="21" y2="200" style="stroke:rgb(213,213,213); opacity:0.39" />
<line x1="109" y1="0" x2="64" y2="200" style="stroke:rgb(67,67,67); opacity:0.39" />
<line x1="110" y1="0" x2="55" y2="200" style="stroke:rgb(41,41,41); opacity:0.39" />
<line x1="111" y1="0" x2="5" y2="200" style="stroke:rgb(241,241,241); opacity:0.39" />
<line x1="112" y1="0" x2="72" y2="200" style="stroke:rgb(192,192,192); opacity:0.39" />
<line x1="113" y1="0" x2="74" y2="200" style="stroke:rgb(162,162,162); opacity:0.39" />
<line x1="114" y1="0" x2="101" y2="200" style="stroke:rgb(208,208,208); opacity:0.39" />
<line x1="115" y1="0" x2="94" y2="200" style="stroke:rgb(227,227,227); opacity:0.39" />
<line x1="116" y1="0" x2="179" y2="200" style="stroke:rgb(252,252,252); opacity:0.39" />
<line x1="117" y1="0" x2="112" y2="200" style="stroke:rgb(254,254,254); opacity:0.39" />
<line x1="118" y1="0" x2="22" y2="200" style="stroke:rgb(104,104,104); opacity:0.39" />
<line x1="119" y1="0" x2="184" y2="200" style="stroke:rgb(127,127,127); opacity:0.39" />
<line x1="120" y1="0" x2="115" y2="200" style="stroke:rgb(206,206,206); opacity:0.39" />
<line x1="121" y1="0" x2="1" y2="200" style="stroke:rgb(27,27,27); opacity:0.39" />
<line x1="122" y1="0" x2="55" y2="200" style="stroke:rgb(236,236,236); opacity:0.39" />
<line x1="123" y1="0" x2="28" y2="200" style="stroke:rgb(168,168,168); opacity:0.39" />
<line x1="124" y1="0" x2="21" y2="200" style="stroke:rgb(9,9,9); opacity:0.39" />
<line x1="125" y1="0" x2="145" y2="200" style="stroke:rgb(165,165,165); opacity:0.39" />
<line x1="126" y1="0" x2="24" y2="200" style="stroke:rgb(165,165,165); opacity:0.39" />
<line x1="127" y1="0" x2="51" y2="200" style="stroke:rgb(238,238,238); opacity:0.39" />
<line x1="128" y1="0" x2="41" y2="200" style="stroke:rgb(100,100,100); opacity:0.39" />
<line x1="129" y1="0" x2="68" y2="200" style="stroke:rgb(89,89,89); opacity:0.39" />
<line x1="130" y1="0" x2="158" y2="200" style="stroke:rgb(194,194,194); opacity:0.39" />
<line x1="131" y1="0" x2="71" y2="200" style="stroke:rgb(147,147,147); opacity:0.39" />
<line x1="132" y1="0" x2="25" y2="200" style="stroke:rgb(206,206,206); opacity:0.39" />
<line x1="133" y1="0" x2="73" y2="200" style="stroke:rgb(155,155,155); opacity:0.39" />
<line x1="134" y1="0" x2="23" y2="200" style="stroke:rgb(49,49,49); opacity:0.39" />
<line x1="135" y1="0" x2="108" y2="200" style="stroke:rgb(214,214,214); opacity:0.39" />
<line x1="136" y1="0" x2="46" y2="200" style="stroke:rgb(128,128,128); opacity:0.39" />
<line x1="137" y1="0" x2="81" y2="200" style="stroke:rgb(246,246,246); opacity:0.39" />
<line x1="138" y1="0" x2="168" y2="200" style="stroke:rgb(120,120,120); opacity:0.39" />
<line x1="139" y1="0" x2="14" y2="200" style="stroke:rgb(75,75,75); opacity:0.39" />
<line x1="140" y1="0" x2="23" y2="200" style="stroke:rgb(70,70,70); opacity:0.39" />
<line x1="141" y1="0" x2="90" y2="200" style="stroke:rgb(79,79,79); opacity:0.39" />
<line x1="142" y1="0" x2="187" y2="200" style="stroke:rgb(250,250,250); opacity:0.39" />
<line x1="143" y1="0" x2="111" y2="200" style="stroke:rgb(103,103,103); opacity:0.39" />
<line x1="144" y1="0" x2="36" y2="200" style="stroke:rgb(54,54,54); opacity:0.39" />
<line x1="145" y1="0" x2="15" y2="200" style="stroke:rgb(156,156,156); opacity:0.39" />
<line x1="146" y1="0" x2="73" y2="200" style="stroke:rgb(141,141,141); opacity:0.39" />
<line x1="147" y1="0" x2="176" y2="200" style="stroke:rgb(113,113,113); opacity:0.39" />
<line x1="148" y1="0" x2="18" y2="200" style="stroke:rgb(100,100,100); opacity:0.39" />
<line x1="149" y1="0" x2="84" y2="200" style="stroke:rgb(185,185,185); opacity:0.39" />
<line x1="150" y1="0" x2="148" y2="200" style="stroke:rgb(128,128,128); opacity:0.39" />
<line x1="151" y1="0" x2="109" y2="200" style="stroke:rgb(146,146,146); opacity:0.39" />
<line x1="152" y1="0" x2="191" y2="200" style="stroke:rgb(120,120,120); opacity:0.39" />
<line x1="153" y1="0" x2="140" y2="200" style="stroke:rgb(115,115,115); opacity:0.39" />
<line x1="154" y1="0" x2="100" y2="200" style="stroke:rgb(144,144,144); opacity:0.39" />
<line x1="155" y1="0" x2="23" y2="200" style="stroke:rgb(17,17,17); opacity:0.39" />
<line x1="156" y1="0" x2="53" y2="200" style="stroke:rgb(49,49,49); opacity:0.39" />
<line x1="157" y1="0" x2="53" y2="200" style="stroke:rgb(94,94,94); opacity:0.39" />
<line x1="158" y1="0" x2="8" y2="200" style="stroke:rgb(227,227,227); opacity:0.39" />
<line x1="159" y1="0" x2="94" y2="200" style="stroke:rgb(150,150,150); opacity:0.39" />
<line x1="160" y1="0" x2="91" y2="200" style="stroke:rgb(4,4,4); opacity:0.39" />
<line x1="161" y1="0" x2="22" y2="200" style="stroke:rgb(168,168,168); opacity:0.39" />
<line x1="162" y1="0" x2="180" y2="200" style="stroke:rgb(113,113,113); opacity:0.39" />
<line x1="163" y1="0" x2="159" y2="200" style="stroke:rgb(19,19,19); opacity:0.39" />
<line x1="164" y1="0" x2="123" y2="200" style="stroke:rgb(189,189,189); opacity:0.39" />
<line x1="165" y1="0" x2="97" y2="200" style="stroke:rgb(95,95,95); opacity:0.39" />
<line x1="166" y1="0" x2="23" y2="200" style="stroke:rgb(38,38,38); opacity:0.39" />
<line x1="167" y1="0" x2="11" y2="200" style="stroke:rgb(104,104,104); opacity:0.39" />
<line x1="168" y1="0" x2="176" y2="200" style="stroke:rgb(148,148,148); opacity:0.39" />
<line x1="169" y1="0" x2="165" y2="200" style="stroke:rgb(140,140,140); opacity:0.39" />
<line x1="170" y1="0" x2="146" y2="200" style="stroke:rgb(119,119,119); opacity:0.39" />
<line x1="171" y1="0" x2="186" y2="200" style="stroke:rgb(72,72,72); opacity:0.39" />
<line x1="172" y1="0" x2="168" y2="200" style="stroke:rgb(155,155,155); opacity:0.39" />
<line x1="173" y1="0" x2="177" y2="200" style="stroke:rgb(228,228,228); opacity:0.39" />
<line x1="174" y1="0" x2="169" y2="200" style="stroke:rgb(120,120,120); opacity:0.39" />
<line x1="175" y1="0" x2="36" y2="200" style="stroke:rgb(148,148,148); opacity:0.39" />
<line x1="176" y1="0" x2="58" y2="200" style="stroke:rgb(213,213,213); opacity:0.39" />
<line x1="177" y1="0" x2="17" y2="200" style="stroke:rgb(6,6,6); opacity:0.39" />
<line x1="178" y1="0" x2="62" y2="200" style="stroke:rgb(193,193,193); opacity:0.39" />
<line x1="179" y1="0" x2="47" y2="200" style="stroke:rgb(81,81,81); opacity:0.39" />
<line x1="180" y1="0" x2="143" y2="200" style="stroke:rgb(233,233,233); opacity:0.39" />
<line x1="181" y1="0" x2="88" y2="200" style="stroke:rgb(151,151,151); opacity:0.39" />
<line x1="182" y1="0" x2="135" y2="200" style="stroke:rgb(208,208,208); opacity:0.39" />
<line x1="183" y1="0" x2="91" y2="200" style="stroke:rgb(178,178,178); opacity:0.39" />
<line x1="184" y1="0" x2="63" y2="200" style="stroke:rgb(3,3,3); opacity:0.39" />
<line x1="185" y1="0" x2="55" y2="200" style="stroke:rgb(195,195,195); opacity:0.39" />
<line x1="186" y1="0" x2="156" y2="200" style="stroke:rgb(25,25,25); opacity:0.39" />
<line x1="187" y1="0" x2="181" y2="200" style="stroke:rgb(189,189,189); opacity:0.39" />
<line x1="188" y1="0" x2="101" y2="200" style="stroke:rgb(250,250,250); opacity:0.39" />
<line x1="189" y1="0" x2="178" y2="200" style="stroke:rgb(141,141,141); opacity:0.39" />
<line x1="190" y1="0" x2="42" y2="200" style="stroke:rgb(157,157,157); opacity:0.39" />
<line x1="191" y1="0" x2="198" y2="200" style="stroke:rgb(85,85,85); opacity:0.39" />
<line x1="192" y1="0" x2="134" y2="200" style="stroke:rgb(163,163,163); opacity:0.39" />
<line x1="193" y1="0" x2="194" y2="200" style="stroke:rgb(87,87,87); opacity:0.39" />
<line x1="194" y1="0" x2="172" y2="200" style="stroke:rgb(229,229,229); opacity:0.39" />
<line x1="195" y1="0" x2="67" y2="200" style="stroke:rgb(243,243,243); opacity:0.39" />
<line x1="196" y1="0" x2="81" y2="200" style="stroke:rgb(161,161,161); opacity:0.39" />
<line x1="197" y1="0" x2="156" y2="200" style="stroke:rgb(68,68,68); opacity:0.39" />
<line x1="198" y1="0" x2="18" y2="200" style="stroke:rgb(58,58,58); opacity:0.39" />
<line x1="199" y1="0" x2="47" y2="200" style="stroke:rgb(232,232,232); opacity:0.39" />
</g>
<text x="100" y="100" style="fill:white; font-size:20; font-family:Calibri; text-anchor:middle" >Random Lines</text>
</svg>
