<?xml version="1.0"?>
<!-- Generated by SVGo -->
<svg width="1200" height="600"
     xmlns="http://www.w3.org/2000/svg"
     xmlns:xlink="http://www.w3.org/1999/xlink">
<title>Bubble Trail</title>
<rect x="0" y="0" width="1200" height="600" style="fill:rgb(200,200,200)" />
<g style="fill-opacity:0.50;stroke:none">
<circle cx="972" cy="238" r="40" style="fill:rgb(0,0,0)" />
<circle cx="1045" cy="270" r="40" style="fill:rgb(127,0,0)" />
<circle cx="265" cy="342" r="40" style="fill:rgb(127,127,127)" />
<circle cx="502" cy="358" r="40" style="fill:rgb(127,127,127)" />
<circle cx="454" cy="376" r="40" style="fill:rgb(127,0,0)" />
<circle cx="966" cy="371" r="40" style="fill:rgb(255,255,255)" />
<circle cx="1037" cy="261" r="40" style="fill:rgb(0,0,0)" />
<circle cx="402" cy="280" r="40" style="fill:rgb(0,0,0)" />
<circle cx="978" cy="202" r="40" style="fill:rgb(127,127,127)" />
<circle cx="494" cy="233" r="40" style="fill:rgb(127,0,0)" />
<circle cx="812" cy="388" r="40" style="fill:rgb(255,255,255)" />
<circle cx="930" cy="290" r="40" style="fill:rgb(255,255,255)" />
<circle cx="986" cy="262" r="40" style="fill:rgb(255,255,255)" />
<circle cx="912" cy="245" r="40" style="fill:rgb(0,0,0)" />
<circle cx="1011" cy="212" r="40" style="fill:rgb(127,0,0)" />
<circle cx="1100" cy="387" r="40" style="fill:rgb(127,127,127)" />
<circle cx="110" cy="388" r="40" style="fill:rgb(255,255,255)" />
<circle cx="772" cy="244" r="40" style="fill:rgb(127,0,0)" />
<circle cx="537" cy="328" r="40" style="fill:rgb(255,255,255)" />
<circle cx="558" cy="304" r="40" style="fill:rgb(127,127,127)" />
<circle cx="1160" cy="337" r="40" style="fill:rgb(0,0,0)" />
<circle cx="174" cy="264" r="40" style="fill:rgb(127,0,0)" />
<circle cx="677" cy="387" r="40" style="fill:rgb(127,127,127)" />
<circle cx="125" cy="399" r="40" style="fill:rgb(127,0,0)" />
<circle cx="1187" cy="361" r="40" style="fill:rgb(127,0,0)" />
<circle cx="656" cy="268" r="40" style="fill:rgb(127,0,0)" />
<circle cx="885" cy="299" r="40" style="fill:rgb(127,127,127)" />
<circle cx="706" cy="282" r="40" style="fill:rgb(127,127,127)" />
<circle cx="162" cy="332" r="40" style="fill:rgb(0,0,0)" />
<circle cx="266" cy="354" r="40" style="fill:rgb(127,0,0)" />
<circle cx="318" cy="333" r="40" style="fill:rgb(255,255,255)" />
<circle cx="944" cy="234" r="40" style="fill:rgb(127,0,0)" />
<circle cx="417" cy="286" r="40" style="fill:rgb(0,0,0)" />
<circle cx="1116" cy="379" r="40" style="fill:rgb(0,0,0)" />
<circle cx="301" cy="391" r="40" style="fill:rgb(255,255,255)" />
<circle cx="921" cy="244" r="40" style="fill:rgb(127,0,0)" />
<circle cx="588" cy="240" r="40" style="fill:rgb(0,0,0)" />
<circle cx="216" cy="272" r="40" style="fill:rgb(127,0,0)" />
<circle cx="947" cy="235" r="40" style="fill:rgb(255,255,255)" />
<circle cx="153" cy="314" r="40" style="fill:rgb(0,0,0)" />
<circle cx="393" cy="338" r="40" style="fill:rgb(127,0,0)" />
<circle cx="468" cy="223" r="40" style="fill:rgb(255,255,255)" />
<circle cx="295" cy="207" r="40" style="fill:rgb(127,0,0)" />
<circle cx="1110" cy="394" r="40" style="fill:rgb(127,127,127)" />
<circle cx="979" cy="298" r="40" style="fill:rgb(127,127,127)" />
<circle cx="369" cy="235" r="40" style="fill:rgb(127,0,0)" />
<circle cx="24" cy="225" r="40" style="fill:rgb(127,0,0)" />
<circle cx="1117" cy="270" r="40" style="fill:rgb(255,255,255)" />
<circle cx="213" cy="281" r="40" style="fill:rgb(127,127,127)" />
<circle cx="399" cy="351" r="40" style="fill:rgb(0,0,0)" />
<circle cx="315" cy="309" r="40" style="fill:rgb(127,0,0)" />
<circle cx="211" cy="309" r="40" style="fill:rgb(127,0,0)" />
<circle cx="1017" cy="217" r="40" style="fill:rgb(127,0,0)" />
<circle cx="365" cy="361" r="40" style="fill:rgb(255,255,255)" />
<circle cx="219" cy="242" r="40" style="fill:rgb(127,127,127)" />
<circle cx="736" cy="203" r="40" style="fill:rgb(127,127,127)" />
<circle cx="602" cy="344" r="40" style="fill:rgb(127,0,0)" />
<circle cx="457" cy="208" r="40" style="fill:rgb(127,0,0)" />
<circle cx="727" cy="351" r="40" style="fill:rgb(127,0,0)" />
<circle cx="1198" cy="397" r="40" style="fill:rgb(127,127,127)" />
<circle cx="934" cy="237" r="40" style="fill:rgb(127,0,0)" />
<circle cx="417" cy="317" r="40" style="fill:rgb(0,0,0)" />
<circle cx="506" cy="209" r="40" style="fill:rgb(127,0,0)" />
<circle cx="989" cy="316" r="40" style="fill:rgb(127,0,0)" />
<circle cx="906" cy="206" r="40" style="fill:rgb(255,255,255)" />
<circle cx="80" cy="206" r="40" style="fill:rgb(127,0,0)" />
<circle cx="1094" cy="372" r="40" style="fill:rgb(127,0,0)" />
<circle cx="644" cy="334" r="40" style="fill:rgb(127,0,0)" />
<circle cx="378" cy="218" r="40" style="fill:rgb(127,0,0)" />
<circle cx="1012" cy="244" r="40" style="fill:rgb(127,0,0)" />
<circle cx="936" cy="389" r="40" style="fill:rgb(255,255,255)" />
<circle cx="353" cy="274" r="40" style="fill:rgb(127,127,127)" />
<circle cx="911" cy="331" r="40" style="fill:rgb(0,0,0)" />
<circle cx="949" cy="336" r="40" style="fill:rgb(127,0,0)" />
<circle cx="137" cy="381" r="40" style="fill:rgb(127,127,127)" />
<circle cx="974" cy="254" r="40" style="fill:rgb(0,0,0)" />
<circle cx="759" cy="346" r="40" style="fill:rgb(255,255,255)" />
<circle cx="236" cy="311" r="40" style="fill:rgb(127,127,127)" />
<circle cx="1002" cy="268" r="40" style="fill:rgb(127,127,127)" />
<circle cx="493" cy="381" r="40" style="fill:rgb(127,0,0)" />
<circle cx="587" cy="299" r="40" style="fill:rgb(127,0,0)" />
<circle cx="707" cy="315" r="40" style="fill:rgb(255,255,255)" />
<circle cx="639" cy="328" r="40" style="fill:rgb(255,255,255)" />
<circle cx="240" cy="252" r="40" style="fill:rgb(127,0,0)" />
<circle cx="248" cy="273" r="40" style="fill:rgb(127,127,127)" />
<circle cx="668" cy="300" r="40" style="fill:rgb(127,0,0)" />
<circle cx="407" cy="356" r="40" style="fill:rgb(255,255,255)" />
<circle cx="885" cy="247" r="40" style="fill:rgb(255,255,255)" />
<circle cx="910" cy="261" r="40" style="fill:rgb(255,255,255)" />
<circle cx="654" cy="269" r="40" style="fill:rgb(127,127,127)" />
<circle cx="860" cy="353" r="40" style="fill:rgb(127,127,127)" />
<circle cx="883" cy="325" r="40" style="fill:rgb(255,255,255)" />
<circle cx="833" cy="270" r="40" style="fill:rgb(127,0,0)" />
<circle cx="1117" cy="275" r="40" style="fill:rgb(127,0,0)" />
<circle cx="1125" cy="341" r="40" style="fill:rgb(0,0,0)" />
<circle cx="549" cy="327" r="40" style="fill:rgb(255,255,255)" />
<circle cx="546" cy="236" r="40" style="fill:rgb(127,0,0)" />
<circle cx="476" cy="318" r="40" style="fill:rgb(0,0,0)" />
<circle cx="734" cy="391" r="40" style="fill:rgb(0,0,0)" />
<circle cx="917" cy="283" r="40" style="fill:rgb(127,0,0)" />
<circle cx="1119" cy="366" r="40" style="fill:rgb(0,0,0)" />
<circle cx="779" cy="250" r="40" style="fill:rgb(127,127,127)" />
<circle cx="1003" cy="375" r="40" style="fill:rgb(255,255,255)" />
<circle cx="810" cy="209" r="40" style="fill:rgb(127,127,127)" />
<circle cx="1032" cy="281" r="40" style="fill:rgb(0,0,0)" />
<circle cx="49" cy="299" r="40" style="fill:rgb(127,0,0)" />
<circle cx="790" cy="398" r="40" style="fill:rgb(255,255,255)" />
<circle cx="95" cy="255" r="40" style="fill:rgb(127,127,127)" />
<circle cx="416" cy="205" r="40" style="fill:rgb(255,255,255)" />
<circle cx="572" cy="372" r="40" style="fill:rgb(127,0,0)" />
<circle cx="548" cy="235" r="40" style="fill:rgb(0,0,0)" />
<circle cx="1082" cy="380" r="40" style="fill:rgb(0,0,0)" />
<circle cx="352" cy="288" r="40" style="fill:rgb(255,255,255)" />
<circle cx="254" cy="267" r="40" style="fill:rgb(127,0,0)" />
<circle cx="654" cy="297" r="40" style="fill:rgb(0,0,0)" />
<circle cx="260" cy="305" r="40" style="fill:rgb(127,127,127)" />
<circle cx="330" cy="337" r="40" style="fill:rgb(127,127,127)" />
<circle cx="944" cy="322" r="40" style="fill:rgb(255,255,255)" />
<circle cx="837" cy="321" r="40" style="fill:rgb(255,255,255)" />
<circle cx="1058" cy="304" r="40" style="fill:rgb(0,0,0)" />
<circle cx="479" cy="238" r="40" style="fill:rgb(255,255,255)" />
<circle cx="657" cy="376" r="40" style="fill:rgb(0,0,0)" />
<circle cx="689" cy="310" r="40" style="fill:rgb(127,0,0)" />
<circle cx="822" cy="308" r="40" style="fill:rgb(127,127,127)" />
<circle cx="325" cy="240" r="40" style="fill:rgb(255,255,255)" />
<circle cx="846" cy="364" r="40" style="fill:rgb(255,255,255)" />
<circle cx="728" cy="207" r="40" style="fill:rgb(255,255,255)" />
<circle cx="33" cy="241" r="40" style="fill:rgb(255,255,255)" />
<circle cx="582" cy="232" r="40" style="fill:rgb(255,255,255)" />
<circle cx="283" cy="285" r="40" style="fill:rgb(127,0,0)" />
<circle cx="742" cy="390" r="40" style="fill:rgb(127,0,0)" />
<circle cx="1192" cy="269" r="40" style="fill:rgb(0,0,0)" />
<circle cx="423" cy="369" r="40" style="fill:rgb(0,0,0)" />
<circle cx="1102" cy="275" r="40" style="fill:rgb(127,127,127)" />
<circle cx="193" cy="361" r="40" style="fill:rgb(127,127,127)" />
<circle cx="524" cy="277" r="40" style="fill:rgb(255,255,255)" />
<circle cx="216" cy="361" r="40" style="fill:rgb(127,0,0)" />
<circle cx="550" cy="241" r="40" style="fill:rgb(255,255,255)" />
<circle cx="256" cy="335" r="40" style="fill:rgb(127,127,127)" />
<circle cx="258" cy="377" r="40" style="fill:rgb(127,127,127)" />
<circle cx="965" cy="395" r="40" style="fill:rgb(127,0,0)" />
<circle cx="1049" cy="248" r="40" style="fill:rgb(127,127,127)" />
<circle cx="1056" cy="380" r="40" style="fill:rgb(255,255,255)" />
<circle cx="624" cy="307" r="40" style="fill:rgb(0,0,0)" />
<circle cx="468" cy="325" r="40" style="fill:rgb(127,0,0)" />
<circle cx="422" cy="211" r="40" style="fill:rgb(255,255,255)" />
<circle cx="708" cy="328" r="40" style="fill:rgb(127,127,127)" />
<circle cx="196" cy="365" r="40" style="fill:rgb(255,255,255)" />
<circle cx="1174" cy="398" r="40" style="fill:rgb(127,127,127)" />
<circle cx="389" cy="356" r="40" style="fill:rgb(127,127,127)" />
<circle cx="99" cy="324" r="40" style="fill:rgb(255,255,255)" />
<circle cx="573" cy="298" r="40" style="fill:rgb(255,255,255)" />
<circle cx="482" cy="335" r="40" style="fill:rgb(255,255,255)" />
<circle cx="141" cy="282" r="40" style="fill:rgb(127,127,127)" />
<circle cx="1000" cy="341" r="40" style="fill:rgb(0,0,0)" />
<circle cx="721" cy="212" r="40" style="fill:rgb(127,127,127)" />
<circle cx="434" cy="211" r="40" style="fill:rgb(0,0,0)" />
<circle cx="331" cy="257" r="40" style="fill:rgb(255,255,255)" />
<circle cx="8" cy="234" r="40" style="fill:rgb(0,0,0)" />
<circle cx="889" cy="317" r="40" style="fill:rgb(255,255,255)" />
<circle cx="893" cy="359" r="40" style="fill:rgb(255,255,255)" />
<circle cx="185" cy="282" r="40" style="fill:rgb(127,127,127)" />
<circle cx="690" cy="332" r="40" style="fill:rgb(127,0,0)" />
<circle cx="59" cy="245" r="40" style="fill:rgb(0,0,0)" />
<circle cx="597" cy="344" r="40" style="fill:rgb(127,127,127)" />
<circle cx="966" cy="382" r="40" style="fill:rgb(0,0,0)" />
<circle cx="528" cy="230" r="40" style="fill:rgb(127,0,0)" />
<circle cx="1085" cy="239" r="40" style="fill:rgb(0,0,0)" />
<circle cx="1124" cy="323" r="40" style="fill:rgb(127,127,127)" />
<circle cx="711" cy="240" r="40" style="fill:rgb(255,255,255)" />
<circle cx="650" cy="256" r="40" style="fill:rgb(127,0,0)" />
<circle cx="756" cy="357" r="40" style="fill:rgb(0,0,0)" />
<circle cx="829" cy="312" r="40" style="fill:rgb(0,0,0)" />
<circle cx="1069" cy="290" r="40" style="fill:rgb(127,127,127)" />
<circle cx="7" cy="238" r="40" style="fill:rgb(127,127,127)" />
<circle cx="1006" cy="262" r="40" style="fill:rgb(127,127,127)" />
<circle cx="524" cy="202" r="40" style="fill:rgb(127,0,0)" />
<circle cx="589" cy="394" r="40" style="fill:rgb(255,255,255)" />
<circle cx="1145" cy="258" r="40" style="fill:rgb(255,255,255)" />
<circle cx="839" cy="332" r="40" style="fill:rgb(255,255,255)" />
<circle cx="563" cy="354" r="40" style="fill:rgb(127,127,127)" />
<circle cx="314" cy="340" r="40" style="fill:rgb(127,127,127)" />
<circle cx="710" cy="346" r="40" style="fill:rgb(0,0,0)" />
<circle cx="126" cy="383" r="40" style="fill:rgb(255,255,255)" />
<circle cx="182" cy="340" r="40" style="fill:rgb(255,255,255)" />
<circle cx="765" cy="255" r="40" style="fill:rgb(0,0,0)" />
<circle cx="1121" cy="252" r="40" style="fill:rgb(255,255,255)" />
<circle cx="987" cy="329" r="40" style="fill:rgb(0,0,0)" />
<circle cx="1091" cy="396" r="40" style="fill:rgb(127,127,127)" />
<circle cx="943" cy="227" r="40" style="fill:rgb(0,0,0)" />
<circle cx="1169" cy="264" r="40" style="fill:rgb(127,127,127)" />
<circle cx="811" cy="369" r="40" style="fill:rgb(127,0,0)" />
<circle cx="448" cy="341" r="40" style="fill:rgb(127,0,0)" />
<circle cx="1180" cy="243" r="40" style="fill:rgb(127,0,0)" />
<circle cx="211" cy="366" r="40" style="fill:rgb(127,127,127)" />
<circle cx="172" cy="398" r="40" style="fill:rgb(255,255,255)" />
<circle cx="705" cy="270" r="40" style="fill:rgb(0,0,0)" />
<circle cx="565" cy="323" r="40" style="fill:rgb(127,127,127)" />
<circle cx="242" cy="285" r="40" style="fill:rgb(127,127,127)" />
<circle cx="594" cy="213" r="40" style="fill:rgb(127,0,0)" />
</g>
</svg>
